/* XPM */
static char *collectible[] = {
/* columns rows colors chars-per-pixel */
"64 64 163 2 ",
"   c #371F2B",
".  c #3B242F",
"X  c #37232F",
"o  c #3E2530",
"O  c #43262F",
"+  c #4A282F",
"@  c #432630",
"#  c #4F2730",
"$  c #442932",
"%  c #4D2B32",
"&  c #542931",
"*  c #5A2A31",
"=  c #533135",
"-  c #5B3435",
";  c #5B333A",
":  c #5A3A3A",
">  c #632C31",
",  c #6F2E31",
"<  c #732E32",
"1  c #7A2F31",
"2  c #643A37",
"3  c #67343C",
"4  c #663D3A",
"5  c #6D3E38",
"6  c #7D3032",
"7  c #753338",
"8  c #6E413A",
"9  c #74473E",
"0  c #473947",
"q  c #4C3B48",
"w  c #7C3E44",
"e  c #5A414A",
"r  c #774D45",
"t  c #7D5345",
"y  c #6E4751",
"u  c #6E595F",
"i  c #5B5566",
"p  c #655A68",
"a  c #803132",
"s  c #8C3333",
"d  c #963533",
"f  c #993634",
"g  c #903B3C",
"h  c #A63834",
"j  c #AB3934",
"k  c #A43732",
"l  c #B33B34",
"z  c #C63E35",
"x  c #CD3F35",
"c  c #80493D",
"v  c #8B4F3E",
"b  c #90513F",
"n  c #B3413E",
"m  c #CF4035",
"M  c #CF463E",
"N  c #DC4236",
"B  c #D44035",
"V  c #E54335",
"C  c #EB4536",
"Z  c #E84538",
"A  c #EC4A3E",
"S  c #E3473B",
"D  c #F14B3E",
"F  c #844743",
"G  c #944346",
"H  c #975842",
"J  c #965B46",
"K  c #905157",
"L  c #AA4A4C",
"P  c #A44E52",
"I  c #BC585A",
"U  c #85625C",
"Y  c #A76046",
"T  c #AE6447",
"R  c #A8684C",
"E  c #BD714E",
"W  c #A46F5A",
"Q  c #AB7656",
"!  c #A67052",
"~  c #BB7754",
"^  c #85636E",
"/  c #80767E",
"(  c #957B75",
")  c #A6686F",
"_  c #CB4E4A",
"`  c #C45A5B",
"'  c #D15A59",
"]  c #F14F43",
"[  c #EF5247",
"{  c #EF544A",
"}  c #E15149",
"|  c #F35145",
" . c #F3554A",
".. c #E75D58",
"X. c #F55C54",
"o. c #F65F58",
"O. c #C5754F",
"+. c #C17F57",
"@. c #F66059",
"#. c #F8625C",
"$. c #CD6C6E",
"%. c #DB6463",
"&. c #D97C7F",
"*. c #EC6E6C",
"=. c #EA6765",
"-. c #FA6762",
";. c #FA6964",
":. c #FD6E6B",
">. c #F36864",
",. c #FE716E",
"<. c #EE7675",
"1. c #FB7371",
"2. c #F37D7D",
"3. c #B2836C",
"4. c #BD937A",
"5. c #CD8156",
"6. c #C8885C",
"7. c #D68657",
"8. c #D78D5D",
"9. c #E2945F",
"0. c #CB8D62",
"q. c #CF9262",
"w. c #D99060",
"e. c #D99869",
"r. c #EA9F66",
"t. c #E39E68",
"y. c #DBA377",
"u. c #E7A36C",
"i. c #EFA76A",
"p. c #F2AB6D",
"a. c #EAA870",
"s. c #76788A",
"d. c #7E8294",
"f. c #8E8A96",
"g. c #A28E88",
"h. c #BB838B",
"j. c #A18793",
"k. c #AA9B95",
"l. c #AFA19C",
"z. c #878FA2",
"x. c #8A97AD",
"c. c #9A9BA6",
"v. c #9FA3AE",
"b. c #95A1B6",
"n. c #9AA9BF",
"m. c #A5A6B8",
"M. c #B7A3B1",
"N. c #C49E83",
"B. c #E2888B",
"V. c #F58080",
"C. c #E99397",
"Z. c #C8A388",
"A. c #CB99A2",
"S. c #D9ABB5",
"D. c #98AAC3",
"F. c #9FB4CE",
"G. c #A5B7CD",
"H. c #B5BCCE",
"J. c #C5B6C5",
"K. c #ADC2D9",
"L. c #BDC6DA",
"P. c #CDC0CF",
"I. c None",
/* pixels */
"I.I.I.I.I.I.I.I.I.I.I.I.I.I.I.I.I.I.I.I.I.I.I.I.I.I.I.I.I.I.I.I.I.I.I.I.I.I.I.I.I.I.I.I.I.I.I.I.I.I.I.I.I.I.I.I.I.I.I.I.I.I.I.I.",
"I.I.I.I.I.I.I.I.I.I.I.I.I.I.I.I.I.I.I.I.I.I.I.I.I.I.I.I.I.I.I.I.I.I.I.I.I.I.I.I.I.I.I.I.I.I.I.I.I.I.I.I.I.I.I.I.I.I.I.I.I.I.I.I.",
"I.I.I.I.I.I.I.I.I.I.I.I.I.I.I.I.I.I.I.I.I.I.I.I.I.I.I.I.I.I.I.I.I.I.I.I.I.I.I.I.I.I.I.I.I.I.I.I.I.I.I.I.I.I.I.I.I.I.I.I.I.I.I.I.",
"I.I.I.I.I.I.I.I.I.I.I.I.I.I.I.I.I.I.I.I.I.I.I.I.I.I.I.I.I.I.I.I.I.I.I.I.I.I.I.I.I.I.I.I.I.I.I.I.I.I.I.I.I.I.I.I.I.I.I.I.I.I.I.I.",
"I.I.I.I.I.I.I.I.I.I.I.I.I.I.I.I.I.I.I.I.I.I.I.I.I.I.I.I.I.I.I.I.I.I.I.I.I.I.I.I.I.I.I.I.I.I.I.I.I.I.I.I.I.I.I.I.I.I.I.I.I.I.I.I.",
"I.I.I.I.I.I.I.I.I.I.I.I.I.I.I.I.I.I.I.I.I.I.I.I.I.I.I.I.I.I.I.I.I.I.I.I.I.I.I.I.I.I.I.I.I.I.I.I.I.I.I.I.I.I.I.I.I.I.I.I.I.I.I.I.",
"I.I.I.I.I.I.I.I.I.I.I.I.I.I.I.I.I.I.I.I.I.I.I.I.I.I.I.I.I.I.I.I.I.I.I.I.I.I.I.I.I.I.I.I.I.I.I.I.I.I.I.I.I.I.I.I.I.I.I.I.I.I.I.I.",
"I.I.I.I.I.I.I.I.I.I.I.I.I.I.I.I.I.I.I.I.I.I.I.I.I.I.I.I.I.I.I.I.I.I.I.I.I.I.I.I.I.I.I.I.I.I.I.I.I.I.I.I.I.I.I.I.I.I.I.I.I.I.I.I.",
"I.I.I.I.I.I.I.I.I.I.I.I.I.I.I.I.I.I.I.I.I.o o o o o o o o $ O . @ o o o o @ o o o o @ I.I.I.I.I.I.I.I.I.I.I.I.I.I.I.I.I.I.I.I.I.",
"I.I.I.I.I.I.I.I.I.I.I.I.I.I.I.I.I.I.I.I.$ o . o o o o o o . . . o o o o o . o o o o o o I.I.I.I.I.I.I.I.I.I.I.I.I.I.I.I.I.I.I.I.",
"I.I.I.I.I.I.I.I.I.I.I.I.I.I.I.I.I.I.I.I.o o o o o o o o o . . . o o o o o o o o o o o o I.I.I.I.I.I.I.I.I.I.I.I.I.I.I.I.I.I.I.I.",
"I.I.I.I.I.I.I.I.I.I.I.I.I.I.I.I.I.I.I.o o o o o . X . X . . . . X X X o . X . . o o o o o I.I.I.I.I.I.I.I.I.I.I.I.I.I.I.I.I.I.I.",
"I.I.I.I.I.I.I.I.I.I.I.I.I.I.I.I.I.@ o o @ o @ . . o X X X . . .   o X X . X X . o o @ o o @ @ I.I.I.I.I.I.I.I.I.I.I.I.I.I.I.I.I.",
"I.I.I.I.I.I.I.I.I.I.I.I.I.I.I.I.o o o o o o o . @ @ $ @ $ $ $ $ $ @ $ $ $ O $ $ @ o . o o o o o I.I.I.I.I.I.I.I.I.I.I.I.I.I.I.I.",
"I.I.I.I.I.I.I.I.I.I.I.I.I.I.I.I.o o @ . o . $ O $ = = - : : : : : : : ; - = = $ @ $ O o o o o o I.I.I.I.I.I.I.I.I.I.I.I.I.I.I.I.",
"I.I.I.I.I.I.I.I.I.I.I.I.I.I.I.I.o o o . . $ $ = ; 2 8 9 9 t t t t t t r 9 8 2 - % $ o . . o o o I.I.I.I.I.I.I.I.I.I.I.I.I.I.I.I.",
"I.I.I.I.I.I.I.I.I.I.I.I.I.I.I.I.o o o X . @ % - 8 v H J R ! Q Q Q Q ! R J H v 5 - % @ o X o o o I.I.I.I.I.I.I.I.I.I.I.I.I.I.I.I.",
"I.I.I.I.I.I.I.I.I.I.I.I.I.I.I.I.@ o o . . @ % 2 9 H Y ~ 6.6.q.q.q.0.6.+.~ T H 9 2 % @ . . o o o I.I.I.I.I.I.I.I.I.I.I.I.I.I.I.I.",
"I.I.I.I.I.I.I.I.I.I.I.I.I.I.I.I.o o o X o o = 5 v Y E 5.8.w.u.u.u.u.t.7.+.E Y v 5 % @ X o o o o I.I.I.I.I.I.I.I.I.I.I.I.I.I.I.I.",
"I.I.I.I.I.I.I.I.I.I.I.I.I.I.I.I.o o o o o @ = 5 b T O.7.w.r.i.p.i.i.r.9.7.O.T v 8 = @ . X o o o I.I.I.I.I.I.I.I.I.I.I.I.I.I.I.I.",
"I.I.I.I.I.I.I.I.I.I.I.I.I.I.I.I.o o o . X @ = 5 H Y O.7.9.u.i.i.p.i.u.9.7.O.T H 5 = @ o . o o @ I.I.I.I.I.I.I.I.I.I.I.I.I.I.I.I.",
"I.I.I.I.I.I.I.I.I.I.I.I.I.I.I.I.o o o . X @ % 5 b Y E 5.w.e.u.a.a.u.t.8.5.O.Y v 5 = o X X o o o I.I.I.I.I.I.I.I.I.I.I.I.I.I.I.I.",
"I.I.I.I.I.I.I.I.I.I.I.I.I.I.I.I.o o o . . . = 2 c J R ~ 0.e.y.y.y.y.e.0.~ ! H c 2 % @ X . o o o I.I.I.I.I.I.I.I.I.I.I.I.I.I.I.I.",
"I.I.I.I.I.I.I.I.I.I.I.I.I.I.I.I.@ o o . . o % - 8 F J W 3.4.Z.Z.Z.N.4.3.W J F 5 - % @ . o o o o I.I.I.I.I.I.I.I.I.I.I.I.I.I.I.I.",
"I.I.I.I.I.I.I.I.I.I.I.I.I.I.I.I.o o o o . o @ % - 4 r U ( g.k.l.l.k.g.3.u t 8 - % O O . . o o o I.I.I.I.I.I.I.I.I.I.I.I.I.I.I.I.",
"I.I.I.I.I.I.I.I.I.I.I.I.I.I.I.I.o o o o o O O O + = e p / f.c.m.v.c.c.p p e = % O O . o o @ o o I.I.I.I.I.I.I.I.I.I.I.I.I.I.I.I.",
"I.I.I.I.I.I.I.I.I.I.I.I.I.I.I.I.o o o . . o . O X $ q u s.z.b.D.n.b.z.s.p q $ X . O o o o o o @ I.I.I.I.I.I.I.I.I.I.I.I.I.I.I.I.",
"I.I.I.I.I.I.I.I.I.I.I.I.I.I.I.I.o @ o o o O .     o 0 i s.x.D.F.F.D.x.s.i 0 o     . o o o o o o I.I.I.I.I.I.I.I.I.I.I.I.I.I.I.I.",
"I.I.I.I.I.I.I.I.I.I.I.I.I.I.I.I.o o o o o o . X   o q p d.n.G.K.H.G.b.d.i q o X X . . o $ o o o I.I.I.I.I.I.I.I.I.I.I.I.I.I.I.I.",
"I.I.I.I.I.I.I.I.I.I.I.I.I.I.I.I.o o o o o o o . . $ e p f.m.H.L.L.H.m.f.p e $ . . o @ o o o o o I.I.I.I.I.I.I.I.I.I.I.I.I.I.I.I.",
"I.I.I.I.I.I.I.I.I.I.I.I.I.I.I.I.o o o o o o o $ & ; y ^ j.M.J.J.P.J.M.j.^ y q * $ o o o o o o o I.I.I.I.I.I.I.I.I.I.I.I.I.I.I.I.",
"I.I.I.I.I.I.I.I.I.I.I.I.I.I.I.o $ o o X X o $ & 3 w K ) h.A.S.S.S.S.A.h.) K w 3 & $ o X X o o @ o I.I.I.I.I.I.I.I.I.I.I.I.I.I.I.",
"I.I.I.I.I.I.I.I.I.I.I.I.I.o o o @ o o   X o & 3 F P I $.&.B.C.C.C.C.B.&.$.I P F 3 % o . . . . @ @ o @ I.I.I.I.I.I.I.I.I.I.I.I.I.",
"I.I.I.I.I.I.I.I.I.I.I.I.$ o o o o o o . o # ; w P ` %.*.<.2.2.V.V.V.2.<.*.%.` P w 3 @ o o . . @ o . o o I.I.I.I.I.I.I.I.I.I.I.I.",
"I.I.I.I.I.I.I.I.I.I.I.I.o o o o o o @ O # & 7 G I %.*.,.1.1.,.1.1.1.1.1.1.*.%.I G 7 * # @ @ @ . o o o o I.I.I.I.I.I.I.I.I.I.I.I.",
"I.I.I.I.I.I.I.I.I.I.I.I.o o o . . o + # > 7 g L ' =.:.,.,.:.:.:.:.:.,.,.:.:.=.' L g < > # @ @ . o o o o I.I.I.I.I.I.I.I.I.I.I.I.",
"I.I.I.I.I.I.I.I.I.I.I.I.o o o . o @ # > a f L _ ' >.:.1.,.,.:.:.:.:.,.,.,.:.=..._ l f a > # @ . o o o o I.I.I.I.I.I.I.I.I.I.I.I.",
"I.I.I.I.I.I.I.I.I.I.I.I.o o o X . @ & , f l B } X.-.:.:.:.:.:.:.:.:.:.:.:.:.>...} _ l f < & @ . o o o o I.I.I.I.I.I.I.I.I.I.I.I.",
"I.I.I.I.I.I.I.I.I.I.I.I.o o o .   O * 1 h z S [ X.#.-.;.;.;.;.-.;.;.;.;.;.;.o.X.[ S z k 1 * @ . X o o o I.I.I.I.I.I.I.I.I.I.I.I.",
"I.I.I.I.I.I.I.I.I.I.I.I.o o o . @ O * 1 j m S ]  .X.o.o.@.@.o.o.o.X.o.o.o.o.X. .| Z x j a * @ . o o o o I.I.I.I.I.I.I.I.I.I.I.I.",
"I.I.I.I.I.I.I.I.I.I.I.I.o o X . . @ * a j x Z ] D |  .{ { { { {  .[ [ { { [ [ ] D Z x j a * @ . o o o o I.I.I.I.I.I.I.I.I.I.I.I.",
"I.I.I.I.I.I.I.I.I.I.I.I.o o o o . @ * 6 j x C C D A A A ] A A A ] ] Z } ] Z A A C Z x j 6 * @ . X o o @ I.I.I.I.I.I.I.I.I.I.I.I.",
"I.I.I.I.I.I.I.I.I.I.I.I.@ o o X o @ * a j x V C C C C C Z V Z V C C Z Z C C C C C V x j 6 * @ . o o o o I.I.I.I.I.I.I.I.I.I.I.I.",
"I.I.I.I.I.I.I.I.I.I.I.I.o o o o   @ * a j x Z C C V V V V V V V V V V V V V C C C V x j 6 * @ . o X o o I.I.I.I.I.I.I.I.I.I.I.I.",
"I.I.I.I.I.I.I.I.I.I.I.I.o o o o . @ * 6 j x C C C C V V V V V Z V V V V V V C C C C x j a * @ . X o o o I.I.I.I.I.I.I.I.I.I.I.I.",
"I.I.I.I.I.I.I.I.I.I.I.I.o o X . o @ * 1 h z x C V Z V C V V Z Z C V C V V C C C C N z h 6 * @ o o o o o I.I.I.I.I.I.I.I.I.I.I.I.",
"I.I.I.I.I.I.I.I.I.I.I.I.o o o . . @ * < f l x N V V C C C C Z C C V C C C C V V x x l f < & @ . X o o o I.I.I.I.I.I.I.I.I.I.I.I.",
"I.I.I.I.I.I.I.I.I.I.I.I.o o o . . @ & > a f j x x V C C C C C Z C C C C C C N x x l f a > # @ . . o o o I.I.I.I.I.I.I.I.I.I.I.I.",
"I.I.I.I.I.I.I.I.I.I.I.I.o o o . . @ $ & > < s h z N C C C C C Z C C C C C C x z h s < > & @ o . . o o o I.I.I.I.I.I.I.I.I.I.I.I.",
"I.I.I.I.I.I.I.I.I.I.I.I.o o o @ o . O O % * < s j x N V V V V V V V V Z V V x l s , * # @ @ o o o o o o I.I.I.I.I.I.I.I.I.I.I.I.",
"I.I.I.I.I.I.I.I.I.I.I.I.@ o o o o o o o X % * < f l z m x x z m m z x x m z l f < * @ o o O o o o o o o I.I.I.I.I.I.I.I.I.I.I.I.",
"I.I.I.I.I.I.I.I.I.I.I.I.I.o o o o o o . X . + > a f h j j j j j j j j j j h d a > % o X X o o o @ o o I.I.I.I.I.I.I.I.I.I.I.I.I.",
"I.I.I.I.I.I.I.I.I.I.I.I.I.I.I.o o o o . . o O & > < 6 6 6 6 6 6 6 6 6 6 6 6 < > & O o . o o o o o I.I.I.I.I.I.I.I.I.I.I.I.I.I.I.",
"I.I.I.I.I.I.I.I.I.I.I.I.I.I.I.I.o o o o o . O $ # & * * * * * * * * * * * * & % O O . o o o o o I.I.I.I.I.I.I.I.I.I.I.I.I.I.I.I.",
"I.I.I.I.I.I.I.I.I.I.I.I.I.I.I.I.o o o o o o o @ O @ @ @ @ @ @ @ @ @ @ @ @ @ @ @ O o o o o o o @ I.I.I.I.I.I.I.I.I.I.I.I.I.I.I.I.",
"I.I.I.I.I.I.I.I.I.I.I.I.I.I.I.I.I.$ o o o . o o . . . . . . . . X X o o . . . . . o o o o o o I.I.I.I.I.I.I.I.I.I.I.I.I.I.I.I.I.",
"I.I.I.I.I.I.I.I.I.I.I.I.I.I.I.I.I.I.I.o o o o o . . . o . X . o . . . . o . . . o o o o o I.I.I.I.I.I.I.I.I.I.I.I.I.I.I.I.I.I.I.",
"I.I.I.I.I.I.I.I.I.I.I.I.I.I.I.I.I.I.I.I.$ o o o o . . o o o o o o o o o o X o o o o . o I.I.I.I.I.I.I.I.I.I.I.I.I.I.I.I.I.I.I.I.",
"I.I.I.I.I.I.I.I.I.I.I.I.I.I.I.I.I.I.I.I.o o o o o o o o o . o o o o o o o o o o o o o o I.I.I.I.I.I.I.I.I.I.I.I.I.I.I.I.I.I.I.I.",
"I.I.I.I.I.I.I.I.I.I.I.I.I.I.I.I.I.I.I.I.I.o o o o o o o o o o o o o o o o o o o o $ o I.I.I.I.I.I.I.I.I.I.I.I.I.I.I.I.I.I.I.I.I.",
"I.I.I.I.I.I.I.I.I.I.I.I.I.I.I.I.I.I.I.I.I.I.I.I.I.I.I.I.I.I.I.I.I.I.I.I.I.I.I.I.I.I.I.I.I.I.I.I.I.I.I.I.I.I.I.I.I.I.I.I.I.I.I.I.",
"I.I.I.I.I.I.I.I.I.I.I.I.I.I.I.I.I.I.I.I.I.I.I.I.I.I.I.I.I.I.I.I.I.I.I.I.I.I.I.I.I.I.I.I.I.I.I.I.I.I.I.I.I.I.I.I.I.I.I.I.I.I.I.I.",
"I.I.I.I.I.I.I.I.I.I.I.I.I.I.I.I.I.I.I.I.I.I.I.I.I.I.I.I.I.I.I.I.I.I.I.I.I.I.I.I.I.I.I.I.I.I.I.I.I.I.I.I.I.I.I.I.I.I.I.I.I.I.I.I.",
"I.I.I.I.I.I.I.I.I.I.I.I.I.I.I.I.I.I.I.I.I.I.I.I.I.I.I.I.I.I.I.I.I.I.I.I.I.I.I.I.I.I.I.I.I.I.I.I.I.I.I.I.I.I.I.I.I.I.I.I.I.I.I.I."
};
