/* XPM */
static char *_5239b847f864caaaf4dff87ae2de79fRNR3sgViidGT8gTx[] = {
/* columns rows colors chars-per-pixel */
"64 64 163 2 ",
"   c None",
".  c #371F2B",
"X  c #3B242F",
"o  c #37232F",
"O  c #3E2530",
"+  c #43262F",
"@  c #4A282F",
"#  c #432630",
"$  c #4F2730",
"%  c #442932",
"&  c #4D2B32",
"*  c #542931",
"=  c #5A2A31",
"-  c #533135",
";  c #5B3435",
":  c #5B333A",
">  c #5A3A3A",
",  c #632C31",
"<  c #6F2E31",
"1  c #732E32",
"2  c #7A2F31",
"3  c #643A37",
"4  c #67343C",
"5  c #663D3A",
"6  c #6D3E38",
"7  c #7D3032",
"8  c #753338",
"9  c #6E413A",
"0  c #74473E",
"q  c #473947",
"w  c #4C3B48",
"e  c #7C3E44",
"r  c #5A414A",
"t  c #774D45",
"y  c #7D5345",
"u  c #6E4751",
"i  c #6E595F",
"p  c #5B5566",
"a  c #655A68",
"s  c #803132",
"d  c #8C3333",
"f  c #963533",
"g  c #993634",
"h  c #903B3C",
"j  c #A63834",
"k  c #AB3934",
"l  c #A43732",
"z  c #B33B34",
"x  c #C63E35",
"c  c #CD3F35",
"v  c #80493D",
"b  c #8B4F3E",
"n  c #90513F",
"m  c #B3413E",
"M  c #CF4036",
"N  c #CF463E",
"B  c #DC4236",
"V  c #D44035",
"C  c #E54335",
"Z  c #EB4536",
"A  c #E84538",
"S  c #EC4A3E",
"D  c #E3473B",
"F  c #F14B3E",
"G  c #854743",
"H  c #944346",
"J  c #975842",
"K  c #965B46",
"L  c #905157",
"P  c #AA4B4C",
"I  c #A44E52",
"U  c #BC585A",
"Y  c #85625C",
"T  c #A76046",
"R  c #AE6447",
"E  c #A8684C",
"W  c #BD714E",
"Q  c #A46F5A",
"!  c #AB7656",
"~  c #A67052",
"^  c #BB7754",
"/  c #85636E",
"(  c #80767E",
")  c #957B75",
"_  c #A6686F",
"`  c #CB4E4A",
"'  c #C45A5B",
"]  c #D15A59",
"[  c #F14F43",
"{  c #EF5247",
"}  c #EF544A",
"|  c #E15149",
" . c #F35145",
".. c #F3554B",
"X. c #E75D58",
"o. c #F55C54",
"O. c #F65F58",
"+. c #C5754F",
"@. c #C17F57",
"#. c #F66059",
"$. c #F8625C",
"%. c #CD6C6E",
"&. c #DB6463",
"*. c #D97C7F",
"=. c #EC6E6C",
"-. c #EA6765",
";. c #FA6762",
":. c #FA6964",
">. c #FD6E6B",
",. c #F46864",
"<. c #FE716E",
"1. c #EE7675",
"2. c #FB7371",
"3. c #F37D7D",
"4. c #B2836C",
"5. c #BD937A",
"6. c #CD8156",
"7. c #C8885C",
"8. c #D68657",
"9. c #D78D5D",
"0. c #E2945F",
"q. c #CB8D63",
"w. c #CF9262",
"e. c #D99060",
"r. c #D99869",
"t. c #EA9F66",
"y. c #E39E68",
"u. c #DBA377",
"i. c #E7A46C",
"p. c #EFA76A",
"a. c #F2AB6D",
"s. c #EAA870",
"d. c #76788A",
"f. c #7E8294",
"g. c #8E8A96",
"h. c #A28E88",
"j. c #BB838B",
"k. c #A18793",
"l. c #AA9B95",
"z. c #AFA19C",
"x. c #878FA2",
"c. c #8A97AD",
"v. c #9A9BA6",
"b. c #9FA3AE",
"n. c #95A1B6",
"m. c #9AA9BF",
"M. c #A5A6B8",
"N. c #B7A3B1",
"B. c #C49E83",
"V. c #E2888B",
"C. c #F58080",
"Z. c #E99397",
"A. c #C8A388",
"S. c #CB99A2",
"D. c #D9ABB5",
"F. c #98AAC3",
"G. c #9FB4CE",
"H. c #A5B7CD",
"J. c #B5BCCE",
"K. c #C5B6C5",
"L. c #ADC2D9",
"P. c #BDC6DA",
"I. c #CDC0CF",
/* pixels */
"                                                                                                                                ",
"                                                                                                                                ",
"                                                                                                                                ",
"                                                                                                                                ",
"                                                                                                                                ",
"                                                                                                                                ",
"                                                                                                                                ",
"                                                                                                                                ",
"                                          O O O O O O O O O O O O O O O O O O O O O O                                           ",
"                                        O O O O O O O O O O O O O O O O O O O O O O O O                                         ",
"                                        O O O O O O O O O O O O O O O O O O O O O O O O                                         ",
"                                      O O O O X X X X X X X X X X X X X X X X X X O O O O                                       ",
"                                  O O O O O O X X X X X X X X X X X X X X X X X X O O O O O O                                   ",
"                                O O O O O O O # # # % % % % % % % % % % % % # # # O O O O O O O                                 ",
"                                O O O O O O # % & & - - > > > > > > > > - - & & % # O O O O O O                                 ",
"                                O O O X X # % & ; 3 9 0 t y y y y y y t 0 9 3 ; & % # X X O O O                                 ",
"                                O O O X X # & ; 9 v J K E ~ ! ! ! ! ~ E K J v 9 ; & # X X O O O                                 ",
"                                O O O X X # & 3 v J R ^ @.7.q.w.w.q.7.@.^ R J v 3 & # X X O O O                                 ",
"                                O O O X X # - 6 b T W 6.9.r.y.i.i.y.r.9.6.W T b 6 - # X X O O O                                 ",
"                                O O O X X # - 6 n R +.8.0.t.p.a.a.p.t.0.8.+.R n 6 - # X X O O O                                 ",
"                                O O O X X # - 6 n R +.8.0.t.p.a.a.p.t.0.8.+.R n 6 - # X X O O O                                 ",
"                                O O O X X # - 6 b T W 6.e.y.i.s.s.i.y.e.6.W T b 6 - # X X O O O                                 ",
"                                O O O X X # & 3 v J E ^ q.r.u.u.u.u.r.q.^ E J v 3 & # X X O O O                                 ",
"                                O O O X X # & ; 6 G K Q 4.5.B.A.A.B.5.4.Q K G 6 ; & # X X O O O                                 ",
"                                O O O X X O % & ; 5 t Y ) h.l.z.z.l.h.) Y t 5 ; & % O X X O O O                                 ",
"                                O O O O O O + + @ - r i ( g.v.b.b.v.g.( i r - @ + + O O O O O O                                 ",
"                                O O O O O O X X X % w a d.x.n.m.m.n.x.d.a w % X X X O O O O O O                                 ",
"                                O O O O O O X X . O q p d.c.F.G.G.F.c.d.p q O . X X O O O O O O                                 ",
"                                O O O O O O X X . O w a f.n.H.L.L.H.n.f.a w O . X X O O O O O O                                 ",
"                                O O O O O O X X X % r a g.M.J.P.P.J.M.g.a r % X X X O O O O O O                                 ",
"                                O O O O O O # % & : u / k.N.K.I.I.K.N.k./ u : & % # O O O O O O                                 ",
"                              O O O O X O O % * 4 e L _ j.S.D.D.D.D.S.j._ L e 4 * % O X X O O O O                               ",
"                          O O O O O O X o O & 4 G I U %.*.V.Z.Z.Z.Z.V.*.%.U I G 4 & O o X O O O O O O                           ",
"                        O O O O O O O X X & : e I ' &.=.1.3.3.C.C.3.3.1.=.&.' I e : & X X O O O O O O O                         ",
"                        O O O O O O # + @ = 8 H U &.=.<.2.2.2.2.2.2.2.2.<.=.&.U H 8 = @ + # O O O O O O                         ",
"                        O O O X X # % * , 8 h P ] -.>.<.<.>.>.>.>.>.>.<.<.>.-.] P h 8 , * % # X X O O O                         ",
"                        O O O X X # $ , 7 g m ` X.,.>.<.<.<.>.>.>.>.<.<.<.>.,.X.` m g 7 , $ # X X O O O                         ",
"                        O O O X X # * 1 f z N | X.,.>.>.>.>.>.>.>.>.>.>.>.>.,.X.| N z f 1 * # X X O O O                         ",
"                        O O O X X % = 2 l x D { o.$.;.:.:.:.:.;.;.:.:.:.:.;.$.o.{ D x l 2 = % X X O O O                         ",
"                        O O O X X % = 7 k M S  ...o.O.#.#.#.O.O.O.O.#.#.#.O.o... .S M k 7 = % X X O O O                         ",
"                        O O O X X % = 7 k M A F [  ...} } } } } } } } } } .. .[ F A M k 7 = % X X O O O                         ",
"                        O O O X X % = 7 k c C Z S S S S S S S S S S S S S S S S Z C c k 7 = % X X O O O                         ",
"                        O O O X X % = 7 k c C Z Z A A A A A A A A A A A A A A Z Z C c k 7 = % X X O O O                         ",
"                        O O O X X % = 7 k c C Z A Z C C C C C C C C C C C C Z A Z C c k 7 = % X X O O O                         ",
"                        O O O X X % = 7 k M C Z Z A C C C C C C C C C C C C A Z Z C M k 7 = % X X O O O                         ",
"                        O O O X X % = 7 j x B A A A A C C C C A C C C C C A A A A B x j 7 = % X X O O O                         ",
"                        O O O X X # * 1 f z c B C C A A A A A A A A A A A A C C B c z f 1 * # X X O O O                         ",
"                        O O O X X # & , s g z x V C A Z Z A A A A A A Z Z A C V x z g s , & # X X O O O                         ",
"                        O O O X X # % * , 1 d j x B A Z Z Z Z A Z Z Z Z Z A B x j d 1 , * % # X X O O O                         ",
"                        O O O O O O # % & = < d z c B C C C C C C C C C C B c z d < = & % # O O O O O O                         ",
"                        O O O O O O O O O % = 1 g z x M c c c c c c c c M x z g 1 = % O O O O O O O O O                         ",
"                          O O O O O O X X O & , s f j k k k k k k k k k k j f s , & O X X O O O O O O                           ",
"                              O O O O X X O % * , 1 2 7 7 7 7 7 7 7 7 7 7 7 1 , * % O X X O O O O                               ",
"                                O O O O O O # % & * = = = = = = = = = = = = * & % # O O O O O O                                 ",
"                                O O O O O O O # # # % % % % % % % % % % % % # # # O O O O O O O                                 ",
"                                  O O O O O O X X X X X X X X X X X X X X X X X X O O O O O O                                   ",
"                                      O O O O X X X X X X X X X X X X X X X X X X O O O O                                       ",
"                                        O O O O O O O O O O O O O O O O O O O O O O O O                                         ",
"                                        O O O O O O O O O O O O O O O O O O O O O O O O                                         ",
"                                          O O O O O O O O O O O O O O O O O O O O O O                                           ",
"                                                                                                                                ",
"                                                                                                                                ",
"                                                                                                                                ",
"                                                                                                                                "
};
