/* XPM */
static char *_87d6baf16e4459da6504016aab92e9d2iCr0JCQNFiWaLjn[] = {
/* columns rows colors chars-per-pixel */
"64 64 153 2 ",
"   c #1F253F",
".  c #21263F",
"X  c #1E2641",
"o  c #222740",
"O  c #252A43",
"+  c #292D46",
"@  c #292F48",
"#  c #332F42",
"$  c #2C3047",
"%  c #2D334C",
"&  c #343144",
"*  c #3B3444",
"=  c #31364E",
"-  c #3D3648",
";  c #353C55",
":  c #393F56",
">  c #353E58",
",  c #383F58",
"<  c #423643",
"1  c #483742",
"2  c #423947",
"3  c #4B3A45",
"4  c #533D44",
"5  c #583E42",
"6  c #36405B",
"7  c #3B435C",
"8  c #3C4661",
"9  c #3E4964",
"0  c #574045",
"q  c #5B4144",
"w  c #644546",
"e  c #694746",
"r  c #6C4946",
"t  c #744C46",
"y  c #7A4E46",
"u  c #7E5046",
"i  c #434C65",
"p  c #434E69",
"a  c #46526C",
"s  c #4B546D",
"d  c #50576F",
"f  c #4A5671",
"g  c #4C5974",
"h  c #4E5C79",
"j  c #535C74",
"k  c #505F7A",
"l  c #596177",
"z  c #54617D",
"x  c #5A647D",
"c  c #855347",
"v  c #8B5547",
"b  c #945A47",
"n  c #9B5D47",
"m  c #9C5D48",
"M  c #A15F48",
"N  c #A56147",
"B  c #A46048",
"V  c #AC6448",
"C  c #B16648",
"Z  c #B56849",
"A  c #BD6B49",
"S  c #C26E4A",
"D  c #566380",
"F  c #596782",
"G  c #5C6A85",
"H  c #606D87",
"J  c #626F89",
"K  c #65728B",
"L  c #6B768E",
"P  c #677691",
"I  c #697791",
"U  c #6C7A94",
"Y  c #737E95",
"T  c #717F99",
"R  c #75839C",
"E  c #75859F",
"W  c #76859F",
"Q  c #73819B",
"!  c #7B859B",
"~  c #7C869B",
"^  c #78879F",
"/  c #7A859C",
"(  c #7F899D",
")  c #7F899D",
"_  c #7987A0",
"`  c #7887A1",
"'  c #7A88A1",
"]  c #7989A3",
"[  c #7A89A2",
"{  c #7B89A2",
"}  c #7B8AA2",
"|  c #7B8AA4",
" . c #7D8CA5",
".. c #7B89A2",
"X. c #7F8EA8",
"o. c #7F8EA8",
"O. c #828FA7",
"+. c #828FA7",
"@. c #8590A6",
"#. c #8190A9",
"$. c #8191AA",
"%. c #8393AC",
"&. c #8595AF",
"*. c #8695AE",
"=. c #8696AF",
"-. c #8595AF",
";. c #8893A9",
":. c #8C98AF",
">. c #8C98AF",
",. c #8797B0",
"<. c #8697B0",
"1. c #8797B1",
"2. c #8897B0",
"3. c #8798B1",
"4. c #8898B1",
"5. c #8998B1",
"6. c #8999B2",
"7. c #8899B2",
"8. c #8A9AB2",
"9. c #8B9CB5",
"0. c #8D9DB7",
"q. c #8D9EB7",
"w. c #8A9AB3",
"e. c #8E9FB8",
"r. c #8E9EB8",
"t. c #8FA0B9",
"y. c #96A1B6",
"u. c #90A0B9",
"i. c #91A0B8",
"p. c #90A1BA",
"a. c #91A1BA",
"s. c #91A2BA",
"d. c #92A1B9",
"f. c #91A1BA",
"g. c #99A4B8",
"h. c #9CA7BB",
"j. c #9AA5B9",
"k. c #9DAABE",
"l. c #99A9C0",
"z. c #9DABC1",
"x. c #9BAAC1",
"c. c #A9B4C7",
"v. c #A6B4CA",
"b. c #A6B4CA",
"n. c #ACB8CC",
"m. c #ACB8CC",
"M. c #B0BBCE",
"N. c #B0BBCE",
"B. c #B2BED0",
"V. c #B5C2D6",
"C. c #B5C2D6",
"Z. c #BAC6D8",
"A. c #BAC6D8",
/* pixels */
"h h k k z k g p > % + o O O O O O O O O O O O O O O O O O O O O O O O O O O O O O O O O O O O O O O O O o + % > p g k z k k h h ",
"z z z z z h f i > % O o O O O O O O O O O O O O O O O O O O O O O O O O O O O O O O O O O O O O O O O O o O % > i f h z z z z z ",
"G G F z k g a 8 ; $ O o O O O O O O O O O O O O O O O O O O O O O O O O O O O O O O O O O O O O O O O O o O $ ; 8 a g k z F G G ",
"I P K F k a 9 > % @ O o o o o o o o o o o o o o o o o o O O O O O O O O o o o o o o o o o o o o o o o o o O @ % > 9 a k F K P I ",
"| W U H g i > % $ + O O o o o o o o o o o o o o o o o o o O O O O O O o o o o o o o o o o o o o o o o o O O + $ % > i g H U W | ",
"#.| T H s 7 % + + O O O + + + + + + + + + + + + + + + + + + + O O + + + + + + + + + + + + + + + + + + + O O O + + % 7 s H T | #.",
"{ R I x p ; @ o o O + $ % ; > > > > > > > > > > > > ; ; % % % % % % % % ; ; > > > > > > > > > > > > ; % $ + O o o @ ; p x I R { ",
"L K F g 7 % O . . o @ ; 7 p s s s s s s s s s s s s a i 7 7 > > > > 7 7 i a s s s s s s s s s s s s p 7 ; @ o . . O % 7 g F K L ",
"s s p 7 ; $ O . . O % 7 f F K L K K K K K K K K K K G x g a p 9 9 p a g x G K K K K K K K K K K L K x s 7 % O . . O $ ; 7 p s s ",
"> > ; = $ + O O O $ > p x I R { { { { { { { { { { ^ Q I F k g a f g k F I Q ^ { { { { { { { { { { R I x p > $ O O O + $ = ; > > ",
"+ + + + O O + @ % > i j K Q  .%.=.,.2.6.6.6.6.6.6.=.X.Q K F k g g k F K Q X.=.6.6.6.6.6.6.2.,.=.%. .Q J j i > % @ + O O + + + + ",
"o o o o o O $ ; 7 p j F K T { #.,.9.e.a.a.a.a.a.a.0.=.{ U G z k k z G U { =.0.a.a.a.a.a.a.e.9.,.#.{ T K F j p 7 ; $ O o o o o o ",
"o o o o o + % 7 s x J K K I U ` #.6.0.a.a.a.a.a.a.0.=.{ U G z k k z G U { =.0.a.a.a.a.a.a.0.6.#.W U I K K K x s 7 % + o o o o o ",
"O O o o o + ; p x I Q T I K K U _ #.=.6.6.6.6.6.6.=.X.Q K F k g g k F K Q X.=.6.6.6.6.6.6.=.#._ U K K I Q Q I x p ; + o o o O O ",
"O O O o o + > s K R  .{ U K K K U R _ { { { { { { ^ Q I F k g f a g k F I Q ^ { { { { { { _ R U K K K U {  .R K s > + o o O O O ",
"O O O o o + > s L { %.#.W U K K K K K K K K K K K K G x g a p 9 9 p a g x G K K K K K K K K K K K K U W #.%.{ L s > + o o O O O ",
"O O O o o + > s K { =.,.#._ U K x j s a a s s s s s a i 7 7 > > > > 7 7 i a s s s s s a a s j x K U _ #.,.=.{ K s > + o o O O O ",
"O O O o o + > s K { ,.9.6.#.R K j i , ; ; ; > > > > ; ; % % % % % % % % ; ; > > > > ; ; ; , i j K R #.6.9.,.{ K s > + o o O O O ",
"O O O o . + > s K { ,.e.0.=.^ K s , $ O O + + + + + + + + + + O O + + + + + + + + + + O O $ , s K ^ =.0.e.,.{ K s > + o o O O O ",
"O O O o o + > s K _ ,.e.e.6.{ K a ; O . . . o o o o . o o O O O O O O o o o o o o . . . . O ; a K { 6.e.e.,._ K s > + o o O O O ",
"O O O o o + > s K _ ,.e.e.,._ K a ; O . . . o o o o o o O O O O O O O O o o o o o . . . . O ; a K _ ,.e.e.,._ K s > + o o O O O ",
"O O O o o + > s K { 6.a.a.6.{ K s > + . . o O O O O O O O O O O O O O O O O O O O O o . . + > s K { 6.a.a.6.{ K s > + o o O O O ",
"O O O o . + > s L O.a.l.l.a.O.L s > + o o O O O O O O O O O O O O O O O O O O O O O O o o + > s L O.a.l.l.a.O.L s > + . o O O O ",
"O O O o . + , j Y :.z.v.v.z.:.Y j 7 + o o O O O O O O O O O O O O O O O O O O O O O O o o + 7 j Y :.z.v.v.z.:.Y j , + . o O O O ",
"O O o o . + 7 j ! g.n.V.V.n.g.~ l 7 @ . o o O O O O O O O O O O O O O O O O O O O O o o . @ 7 l ~ g.n.V.V.n.g.! j 7 + . o o O O ",
"O O O o o $ 7 l ( h.M.Z.Z.M.h.( l 7 + . o o O O O O O O O O O O O + O O O O O O O O o o . + 7 l ( h.M.Z.Z.M.h.( l 7 $ o o O O O ",
"O O O O + % i l ~ y.c.B.B.c.y.! j 7 + . o O O O O O O O O O O O O O O O O O O O O O O o . + 7 j ! y.c.B.B.c.y.~ l i % + O O O O ",
"O O + @ % > p x Y ;.y.k.k.y.@.L d , + o o O O O O O O O O O O O O O O O O O + O O O O o o + , d L @.y.k.k.y.;.Y x p > % @ + O O ",
"O O @ % > 9 s z K Y ^  . .^ I x p ; + o o O O O O O O O O O O O O O O O O O O O O O O o o + ; p x I ^  . .^ Y K z s 9 > % @ O O ",
"o O $ ; 7 a g z F J K K K J x f 7 = + o o O O O O + O O O O + O O O O O O O O O O O O o o + = 7 f x J K K K J F z g a 7 ; $ O o ",
"o O $ > i f h z z z z z D z g p > % + O O O O O O O O O O O O O O O O O O O O O O O O O O + % > p g z D z z z z z h f i > $ O o ",
"o + % > p g k z k h h h h g a 9 ; $ O O O O O O O O O O O O O O O O O O O O O O O O O O O O $ ; 9 a g h h h h k z k g p > % + o ",
"o + % > p g k z k h h h h g a 9 > $ O O O O O O O O O O O + O O O O O O O O O + O O O O O O $ > 9 a g h h h h k z k g p > % + o ",
"o O $ > i f h z z z z z z k f p > % + O O O O O O O O O O O O O O O O O O O O O O O O O O + % > p f k z z z z z z h f i > $ O o ",
"o O $ ; 8 p g k z F G G G F k a 7 % + O O O O O O O O O O O O O O O O O O O O O O O O O O + % 7 a k F G G G F z k g p 8 ; $ O o ",
"O O @ % > 8 a k F J K I I K F g 7 = + o O O O O O O O O O O O O O + O O O O O O O O O O o + = 7 g F K I I K J F k a 8 > % @ O O ",
"O O + @ % > 9 g G I R { { Q L x i ; + o o O O O O O O O O O O O O O O O O O + O O O O o o + ; i x L Q { { R I G g 9 > % @ + O O ",
"O O O O + % 7 s J Q X.=.=.X.Q G a ; + o o O O O O O O O O O O O O O + O O O O O O O O o o + ; a G Q X.=.=.X.Q J s 7 % + O O O O ",
"O O O O o @ > s K _ =.0.0.=.^ J s > + o o O O O O O O O O O O O O O O O O O O O O O O o o + > s J ^ =.0.0.=._ K s > @ o O O O O ",
"O O O o . + > s K { 6.t.t.6.{ K s > + o o O O O O O O O O O O + O O O O O O O O O O O o o + > s K { 6.t.t.6.{ K s > + . o O O O ",
"O O O o . + > s K { 6.t.t.6.{ K s > + o o O O O O O O O O O O O O O O O O O O O O O O o o + > s K { 6.t.t.6.{ K s > + . o O O O ",
"O O O o . + > s K  .6.a.a.6. .K s > + o o O O O O O O O O O O O O O O O O O O O O O O o o + > s K  .6.a.a.6. .K s > + . o O O O ",
"O O O o . + > s L O.a.l.l.a.O.L s > + o o O O O O O O O O O O O O O O O O O O O O O O o o + > s L O.a.l.l.a.O.L s > + . o O O O ",
"O O O o . + , j Y :.z.v.v.z.:.Y j 7 + o o O O O o o o o O O O O O O O O o o o o O O O o o + 7 j Y :.z.v.v.z.:.Y j , + . o O O O ",
"O O o o . + 7 j ! g.m.V.V.n.g.~ l 7 + . o o O O o o o o O O O O O O O O o o o o O O o o . + 7 l ~ g.n.V.V.m.g.! j 7 + . o o O O ",
"O O O o o $ 7 l ( h.M.Z.Z.M.h.( l 7 + . o o O O + + + + O O O O O O O O + + + + O O o o . + 7 l ( h.M.Z.Z.M.h.( l 7 $ o o O O O ",
"O O O O + % i l ~ y.c.B.B.c.y.! j 7 + . o o + + & * * & + + O o o O + + & * * & + + o o . + 7 j ! y.c.B.B.c.y.~ l i % + O O O O ",
"O O + @ % > p x Y ;.y.k.k.y.@.L d , +   X o + * 3 4 4 3 * + O X X O + * 3 4 4 3 * + o X   + , d L @.y.k.k.y.;.Y x p > % @ + O O ",
"O O @ % > 9 s z K Y ^  . .^ I x p ; + X X O & 3 w t t w 3 & o X X o & 3 w t t w 3 & O X X + ; p x I ^  . .^ Y K z s 9 > % @ O O ",
"o O $ ; 7 a g z F J K K K J x f 7 % + O O + * 0 t c c t 5 * + O O + * 5 t c c t 0 * + O o + % 7 f x J K K K J F z g a 7 ; $ O o ",
"o O $ > i f h z z z z z D z g p > % + + # * 3 w u v v u w 3 < * * < 3 w u v v u w 3 * # + + % > p g z D z z z z z h f i > $ O o ",
"o + % > p g k z k h h h h g a 9 ; % & * 1 5 w t y u u t r w q q q q w r t u u y t w 5 1 * & % ; 9 a g h h h h k z k g p > % + o ",
"o + % > p g k z k h h h h g a 9 ; % & 1 w t u y r w w e t u c c c c u t e w w r y u t w 1 * = ; 9 a g h h h h k z k g p > % + o ",
"o O $ > i f h z z z z z z k f 9 ; = * 4 t c v u w q q w u b M V V M b u w q q w u v c t 4 * = ; 9 f k z z z z z z h f i > $ O o ",
"o O $ ; 8 p g k z F G G G F k a 6 = * 4 t c v u w 0 q r v B Z A A Z B v r q 0 w u v c t 4 * = 6 a k F G G G F z k g p 8 ; $ O o ",
"O O @ % > 8 a k F J K I I K F g 7 ; & 1 w t y t e w r u n V A S S A V n u r w e t y t w 1 & = 7 g G K I I K J F k a 8 > % @ O O ",
"O O + @ % > 9 g G I R { { Q K z i ; & & 1 4 q e t u v n V Z A S S A Z V n v u t e q 4 1 & & ; i z K Q { { R I G g 9 > % @ + O O ",
"O O O O + % 7 s J Q X.=.=.X.T G p ; + + & < 4 w u b B V Z A A A A A A Z V B b u w 4 < & . + ; p G T X.=.=.X.Q J s 7 % + O O O O ",
"O O O O o @ > s K _ =.0.0.=.^ J s > $ + # < 5 r v B Z A A A A A A A A A A Z B v r 5 < # + $ > s J ^ =.0.0.=._ K s > @ o O O O O ",
"O O O o . + > s K { 6.a.a.6.{ K s > & # < 4 e c m C A S S A A A A A A S S A C m c e 4 < # & > s K { 6.a.a.6.{ K s > + . o O O O ",
"O O O o . + > s K { 6.a.a.6.{ K s , & < q t v n V Z A S A A A A A A A A S A Z V n v t q < & , s K { 6.a.a.6.{ K s > + . o O O O ",
"O O O o . + > s K { 6.t.t.6.{ K a , * 4 t v N C Z A A A A A A A A A A A A A A Z C B v t 4 - , a K { 6.t.t.6.{ K s > + . o O O O ",
"O O O o o + > s K { 6.t.t.3._ J a , 2 5 u m Z A A A A A A A A A A A A A A A A A A Z m u 5 2 , a J _ 3.t.t.6.{ K s > + o o O O O ",
"O O O o o + > s K { 3.t.t.,._ J a , 2 q c N A S S A A A A A A A A A A A A A A S S A N c q 2 , a J _ ,.t.t.3.{ K s > + o o O O O "
};
