/* XPM */
static char *exit[] = {
/* columns rows colors chars-per-pixel */
"64 64 103 2 ",
"   c #1F253F",
".  c #21263F",
"X  c #1E2641",
"o  c #222740",
"O  c #252A43",
"+  c #292D46",
"@  c #292F48",
"#  c #332F42",
"$  c #2C3047",
"%  c #2D334C",
"&  c #343144",
"*  c #3B3444",
"=  c #31364E",
"-  c #3D3648",
";  c #353C55",
":  c #393F56",
">  c #353E58",
",  c #383F58",
"<  c #423643",
"1  c #483742",
"2  c #423947",
"3  c #4B3A45",
"4  c #533D44",
"5  c #583E42",
"6  c #36405B",
"7  c #3B435C",
"8  c #3C4661",
"9  c #3E4964",
"0  c #574045",
"q  c #5B4144",
"w  c #644546",
"e  c #694746",
"r  c #6C4946",
"t  c #744C46",
"y  c #7A4E46",
"u  c #7E5046",
"i  c #434C65",
"p  c #434E69",
"a  c #46526C",
"s  c #4B546D",
"d  c #50576F",
"f  c #4A5671",
"g  c #4C5974",
"h  c #4E5C79",
"j  c #535C74",
"k  c #505F7A",
"l  c #596177",
"z  c #53617D",
"x  c #5A647D",
"c  c #855346",
"v  c #8B5547",
"b  c #945A47",
"n  c #9B5D47",
"m  c #9C5D48",
"M  c #A15F48",
"N  c #A56147",
"B  c #A46048",
"V  c #AC6448",
"C  c #B16648",
"Z  c #B56849",
"A  c #BD6B49",
"S  c #C26E4A",
"D  c #566380",
"F  c #596782",
"G  c #5C6A85",
"H  c #606D87",
"J  c #626F89",
"K  c #65728B",
"L  c #6B768E",
"P  c #677691",
"I  c #697791",
"U  c #6C7A94",
"Y  c #737E95",
"T  c #717F99",
"R  c #74829C",
"E  c #7A869C",
"W  c #7F899D",
"Q  c #7887A0",
"!  c #7B89A2",
"~  c #7F8EA8",
"^  c #828FA7",
"/  c #8590A6",
"(  c #8494AD",
")  c #8893A9",
"_  c #8C98AF",
"`  c #8797B0",
"'  c #8897B0",
"]  c #8798B1",
"[  c #8A9AB3",
"{  c #8E9FB8",
"}  c #8FA0B9",
"|  c #96A1B5",
" . c #91A1B9",
".. c #9AA5B9",
"X. c #9DAABE",
"o. c #9BAAC1",
"O. c #A9B4C7",
"+. c #A6B4CA",
"@. c #ACB8CC",
"#. c #B0BBCE",
"$. c #B2BED0",
"%. c #B5C2D6",
"&. c #BAC6D8",
/* pixels */
"h h k k z h g a 6 % @ . O O O O O O @ O O O O O O O O @ O O O $ O O O O O $ O O O O O $ O O O O O O O O   @ % 6 9 f k z k k h h ",
"z z z z z h a 9 ; % O   O O O O O O O O O O O O O O O O O O O O O O O O O O O O O O O O O O O O O O O O O O % 6 9 f h z z z z z ",
"G G F z z g a 7 ; @ O O O O O O O o . O O O O O O O O . O O O O O O O O O O O O O O O O O O O O . O . O O O @ 6 7 a g k z z x G ",
"P P K G h a 9 6 % @ O O . O .   O . O O . O . O . O . O . O . O O O . O . O . . . O . . . O . O O O O .   O + = 6 9 a k G H P R ",
"! Q U H j i 6 % $ @ O O O . . . . . . . . . . . . . . . . . . O . . . . . . . . . . . . . . . . . . . . O O @ $ % 6 9 j J R R Q ",
"~ ! Y H s 7 % + O O O O O @ @ $ O $ $ $ @ @ $ + @ $ $ O O $ @ O $ $ $ O @ @ @ $ $ . $ $ $ $ $ . @ @ $ O O O O + . % 7 s H R ! ~ ",
"! R U x p ; @ o O O . $ % ; 6 6 6 ; ; ; ; 6 ; 6 6 ; ; ; = = % $ % % % = = 6 6 6 6 ; ; 6 6 6 6 6 6 6 ; $ % O . . . % 6 i z R R ! ",
"P K F g 7 = O .   X $ ; 7 i a s s s s s s s s s s a p i 7 7 6 6 6 6 7 7 i i a s s s s s a s s f s s i 7 ; @ O   . + % 7 f x K P ",
"d i a 7 ; % . .   O $ 7 d x K L K K K K J K K K K K G D g a 9 9 7 9 s g x G J K K K K K K K K K L x x d 7 $ . . . . $ 6 7 i s s ",
"6 6 6 = @ $ O . O $ 6 p x L R E ! E ! ! ! E ! ! ! Q R P F z h a f g k G P R E ! ! ! ! E E E ! ! ! R R x i 6 % . + . @ % % 6 6 6 ",
". $ @ @ O O O $ % 6 i d J R ~ ( ` ` ' ' ] ] ] [ [ ` ~ Q K F z h h z x P R ~ ] ] ] _ ] ] ( ` ] ` ~ ~ R H j i 6 $ % . $ $ . = . . ",
". . . . . O + ; 7 p d x K R ! ~ ] [ } } }  . . .} { ~ ! U G D h h z G U E ( } }  . .} } } } } ] ~ ! R L x d i 7 6 . . . . . . . ",
". . . . . @ = 7 g z J K K I R R ~ [ } } } }  . .} { ( Q U G D h h z G R R ~ } }  .} } } } } [ ~ Q R K K K J x s 7 % + . . . . $ ",
"$ . . O . + 6 9 x P R R I P K U E ~ ` ] _ _ ] [ [ ` ~ R K F h h h z F K Q ~ ] ] } ] ` } ] ( ~ E R K G R R R R l i 6 @ . . $ . . ",
"O O $ . . $ 6 s K R ~ Q R J K K R R E ! ! ! ! ! ! E R K G k g a a h k G P R R ! E ! ! E E E R R P J K R ! ~ W x s 6 % . . + $ + ",
"+ O O . . . 6 s P ! ~ ~ R R P K K K K J K K K K K J J z g a i i 9 9 a g z H K K K J K K K K K K J J R R ~ ( ! K s 6 % . . . . + ",
"O O O . . @ 6 s K ! ( ` ~ Q U K x j s a a s s s f a p i 7 7 > ; ; 6 7 7 i p s s s s s s s s j x J R Q ~ ~ ` ! K g 6 $ . . . $ . ",
"+ O O . O @ 6 s K Q ] { [ ~ R K j i ; ; ; ; ; ; ; ; ; ; = % % % % % = % = ; ; ; ; ; = ; ; 6 i d J R ~ ~ } ` E K s 6 = . . $ . $ ",
"O O O O . $ 6 i K Q ] { { ( Q J s ; $ O + + + + + + + + O O O O O + + + $ + $ @ $ + O + . & 6 s P ! ~ o.} ` ! K i 6 . . . O + O ",
"O O O . . . 6 s K E ' } } ] ! K a ; +   . . . . o o X o O O O O o o O o . . O . . . . . . O ; p J ~ ~ } } ] E J s 6 . . O . O + ",
"$ $ . $ . $ 6 s K E ] } } ' W J a = + . . . . + O o o o X O O O O O o O . . O . . . . . . + ; s J ! ~ } } ] E K i 6 % . . O O O ",
". . $ . . $ 6 s K ! ] }  .[ W K s ; + . . . + . O O O O O O O O O O O O O O O O O . + . . $ ; s K ! } } } } W J d 6 + . O O O + ",
"$ . . . . . 6 d L / } X.X. .^ L d : @ O . O . + O O O O O O O O O O O O O O O O O O O . . $ 6 d R ! | X.X.} ~ L d 6 @   . O O O ",
"O O $ . . . 6 d Y _ o.+.+.X.) Y j : + . . O . + O O + O O O + O O O O O O O O + O O + . . . 6 d R ~ X.+.+.X.] R d 6 @ . . O O O ",
"O O O . . $ 7 l E ..@.%.%.@...E j : + . o o O O + + O O O O O O O @ O O $ O O @ O O O . . $ 7 l / | O.%.%.@.| E l 7 $ . . O O $ ",
"O O O O . % 7 l W ..@.&.&.#...^ l i + . o o O O O O + O + O + O O O O O O O O O O O O .   @ 7 l W ..#.%.&.#.X.W l 7 = . . . O . ",
"O O O O O = i l W | O.%.#.O.| W j 7 + . o O O O O O O O O O O + O O O @ O O O O O O O . . @ 7 l E _ O.%.%.O.| E l i = . O O O O ",
"O O O $ $ 6 i x R ) | X.X.| / L d : + . o O O + + O + O + O O O O @ O O $ O O @ O O O O O @ ; d L / | X.X.| ) R l i 6 $ $ + O O ",
"O O @ % 6 9 f z H R E ~ ! E I x i ; + o o O O O O O O + O O + O + O + O O + O O @ O O . . @ ; p l Y E / ! E R K z f 7 6 = @ O   ",
"O O @ = 7 p g z x x K K K K z g i = + O o O O O + O O + O + O O O O O O O O O + O O . O O O = 7 d x H K P K H x z g s 7 6 @ O . ",
". O % 6 9 f h z x z x z D z g a ; % + . O O O O O O O O O O + + O O o + + O O + O O O O . @ % 6 a g l z z x z z z h f 9 6 % O O ",
"O O % 6 a g h z z h h h h g a 9 ; $ O O O O O O O + + O + O O O O + + O O + O O O O O O . O @ ; 9 a g h h h h k z k g 9 6 % O O ",
"X @ @ > p g h z h h h h h h a 9 ; % O O O O O O O + O + O O O O O O O O O O O @ O O O o O O % ; 9 a h h h h h h z k f 9 6 % O o ",
"o O % > 9 f h z D z h D z h f p > % + o O O O @ O O O O + O + + O + @ O + O O O O O O O o + % ; 9 g h z z z z z z h f 9 6 % + o ",
"o + @ > 7 a g k D D F G G F j a 6 % + o o O O O + O + O O O O O O O O O O @ O + + O O O O + % 7 a h F G G G F z h g a 8 ; % O o ",
"o O $ % > 8 a h F J P P P P G g 9 % + o O o O O O O O O O + O + + O + O O O O O O O O O o + % 9 h F P P P P J F h a 8 > % @ O o ",
"O O + @ % > 9 g G P Q Q ! R P x i ; O . o O O O @ O O @ O O O O O O O O O O O @ o O o o . + = i z L R Q Q R U G g 9 > % @ @ O O ",
"O O O O @ % 7 s J R ~ ` ( ^ R G a ; @ . o O O O O O O O + O + O O @ O + + O O O + + O o . $ ; p G R ~ ( ] ~ R G f 7 % + O O O O ",
"O O O O o @ 6 s J Q ` [ { ( E J s ; @ . o O O O O O O O + O O O + O O O O @ O + O o O o o $ ; s J E ] } } ] R K s > $ o O X O O ",
"O O O o   + ; a K ! ] }  .] ! K s ; @ . O O O O + O O @ O O + + O O + O O O O O + O O o X + : s K E ] } } ] ! K a ; + X o O O O ",
"O O o o o @ ; a K E ] } } ] ! K a : @ . . o O O O O O O + O O O @ O O + O O + O O O O o . $ ; s J ! [  . .] W K s ; @ . . . O + ",
"O O O o o @ ; s K ! [ .. .] ! K s ; $ . O O O O O O O O O O O + O O O O O O O O O O o O . @ ; s L ! [  . .] W K s ; @ . O O O O ",
"+ O O o . + : s L / | ..o. ./ L d ; @ . o O O O O O + . O O O O O O O O O O O O O o O o . + : d I ^  .o.o. .^ L s : + . O O O O ",
"O O O X . @ : j Y _ X.O.+.o.[ Y j 7 @ . . o O O O O . + O O O O O O O O O o o o O O O o . + 7 d Y _ o.O.O.o.) Y j 7 O . . O O O ",
"O O O o . @ 7 j E | O.%.%.O.| E l 7 $ . o o O O + . . . o O O O O O O O O o o O O o O . . @ i j E | #.$.%.#.| E j 7 @ o . O O O ",
"O O O o . @ i l / ..#.&.&.#...^ l 7 @   o O O O . + + + + + O + O O O O O + + + + O . O . @ 7 l ^ | #.&.&.#.../ l 7 @ o o O O O ",
"O O O O @ = i j / _ O.%.#.O.| E j 7 $ X o o + . & * * & + + O X X O O # & * * & + + . . . @ 7 j E | O.$.$.O.| ^ x i = O O O O O ",
"O O @ @ $ : i l Y ) | X.X.| / L d : +   X o # < 3 4 4 3 * + O X X + + * 3 4 4 3 * + . . . + ; d L / | X...| / Y x i ; % @ O O O ",
"o O @ % > 8 a z L Y Q ~ ! E I x p ; O     O & 1 e r t e 3 & o X X O & 3 w t t w 1 & O o X O ; p x L ^ ^ ! Q R K z s 9 ; % @ O o ",
"o O @ ; 8 a g z G G K K L H x j 7 = O O . $ * 0 y v v t q - $ o o + - 0 t c v t 0 < + . o + % 7 d x J J P G G G z g a 8 ; @ + o ",
"o O % > 9 f h z z D z D D k g p 6 $ $ . & * 0 w u v v u w 3 - * * - 3 w u v v u w 3 * & @ @ % > p g j D D D D D z h f 9 ; % O o ",
"O O % > p g h z k h h h h h a 8 6 % & & 1 0 w r y u u t r e q 0 q q w r y u u y t w 5 1 & & % ; 9 p g k h h h h z h g p > % @ o ",
"o + % > 9 g h D D h h h h h a 9 ; $ & 1 w t u y r e w w t u c c v c u t e w w r y u t w 1 & = ; 9 a h h h h h h z z g 9 > % O O ",
"o O % > 9 f h z h h D D k k g 9 6 = * 0 t c v u w 0 0 e u b B N N B b u w 5 q w u v c t 4 * = ; 9 g h D h D D D z h f 9 > @ + X ",
"o O % ; 8 p g h D D F G G D h a 7 & . 4 r c v u w 0 0 r v B Z A A Z B v r q 4 w y c c t 4 * = 6 a h F G G F F D h f a 8 ; @ O o ",
"O O @ % > 9 a h D J P P U P F g 7 6 2 1 w t y t e w e u n C A S S A V n u r w e y t t w 1 * = 7 g F P P P P J D h a 9 6 % @ + o ",
"O O O @ = ; 8 j G U R ! Q R P z i ; . * 3 0 q e t y v n V C A S S A Z V n v u t e q 4 1 . * ; i z P R ! Q R U H g 9 > % $ @ O O ",
"O O O O O % 7 s J R ~ ` ` ~ T G p ; & . . < 0 e u b B C C A A A S A A Z V B b u w 4 < & + & = s H T ~ ( ( ~ R J f 6 % + O O O O ",
"O O O O O @ : a J Q ] { { ] Q G s ; - . . 1 q r v B Z A A A A A A A A A A Z N v t 4 3 . . & 7 a J E ' { { ( Q J s : $ o O o O O ",
"O O o o o + ; s K ! ] }  .] ! K s 7 * . 0 q e c m Z A S S A A A A A A A S A C m c r 5 < . 2 : s J ! [  . .] ! J a ; + X o O O O ",
"O O O o . + ; s K ! ] } } ] ! K s ; . 1 q t v m V Z A A A A A A A A A A A A Z C n v t 5 < * : a J ! ]  . .[ ! K a ; O . o O O O ",
"+ O O o . @ ; a K ! ] } } ] Q K s 6 3 4 t v B Z Z A A A A A A A A A A A A A A Z C M v t 4 - 7 a K Q ]  .} ' ! K s ; @ o o O O O ",
"O O O o . @ : a K ! ] } } ] Q J s : 2 4 u m Z A S A A A A A A A A A A A A A A A S Z M y 5 < : a J Q ]  . .' ! K s : @ o o O O O ",
"O O O o . @ : s K Q ] } } ] Q J p 7 2 q v N A S S A A A Z A A A A A A A A A A S S A N c q < : a J Q `  . .' E K a ; @ o O O O O "
};
