/* XPM */
static char *player[] = {
/* columns rows colors chars-per-pixel */
"64 64 216 2 ",
"   c #371D29",
".  c #391F2A",
"X  c #3C232E",
"o  c #3E2631",
"O  c #3F2935",
"+  c #3F2C3A",
"@  c #412934",
"#  c #422E3B",
"$  c #442A34",
"%  c #43313F",
"&  c #49343F",
"*  c #5C3D3D",
"=  c #54363B",
"-  c #48292F",
";  c #6A3F3A",
":  c #754A3D",
">  c #70443F",
",  c #6F4039",
"<  c #5E413F",
"1  c #443443",
"2  c #4B3643",
"3  c #4B3946",
"4  c #453B4C",
"5  c #4E3D4A",
"6  c #453B48",
"7  c #513B45",
"8  c #513E4B",
"9  c #4A424C",
"0  c #53414D",
"q  c #5A444E",
"w  c #56484C",
"e  c #4A4255",
"r  c #494459",
"t  c #4A495F",
"y  c #474357",
"u  c #554B5B",
"i  c #5A4D5C",
"p  c #574753",
"a  c #59505D",
"s  c #624443",
"d  c #684A4E",
"f  c #744B45",
"g  c #65524E",
"h  c #7A5447",
"j  c #6A5756",
"k  c #735857",
"l  c #4B4C63",
"z  c #584F60",
"x  c #4E546D",
"c  c #5B5262",
"v  c #56556A",
"b  c #4F5873",
"n  c #515A74",
"m  c #505E7B",
"M  c #655865",
"N  c #635B6B",
"B  c #695E6C",
"V  c #675862",
"C  c #765F63",
"Z  c #52617D",
"A  c #5A6179",
"S  c #4F607D",
"D  c #6B606E",
"F  c #6F6061",
"G  c #786266",
"H  c #656274",
"J  c #6D6271",
"K  c #61657B",
"L  c #696678",
"P  c #6A6A7C",
"I  c #736A75",
"U  c #7C727B",
"Y  c #746158",
"T  c #91523F",
"R  c #835C4C",
"E  c #825547",
"W  c #935949",
"Q  c #8E5D53",
"!  c #A35F47",
"~  c #946457",
"^  c #9A735C",
"/  c #846B5B",
"(  c #A6644D",
")  c #A16A4D",
"_  c #AA6B55",
"`  c #A36853",
"'  c #A87759",
"]  c #B4775D",
"[  c #8D7462",
"{  c #977764",
"}  c #846E71",
"|  c #927D7B",
" . c #916E66",
".. c #A37768",
"X. c #B87961",
"o. c #AE7F71",
"O. c #B3845E",
"+. c #A58466",
"@. c #B58966",
"#. c #BA946D",
"$. c #A98A79",
"%. c #B88776",
"&. c #BC9773",
"*. c #96827C",
"=. c #C5865A",
"-. c #C68A5E",
";. c #C38C63",
":. c #C8976A",
">. c #DE9C66",
",. c #D79E6B",
"<. c #CA9976",
"1. c #D69D74",
"2. c #D3A06F",
"3. c #CBA377",
"4. c #D3A472",
"5. c #D9A977",
"6. c #DFB17D",
"7. c #E8A66D",
"8. c #EDAD71",
"9. c #E2A770",
"0. c #E8B47A",
"q. c #F5B677",
"w. c #F6BB7B",
"e. c #F7BB7B",
"r. c #F1AC6E",
"t. c #576681",
"y. c #6C6D82",
"u. c #636E86",
"i. c #6F7185",
"p. c #66718A",
"a. c #6C768E",
"s. c #737386",
"d. c #73768A",
"f. c #75798D",
"g. c #7D7A8B",
"h. c #6C7A93",
"j. c #757D93",
"k. c #7B7E92",
"l. c #747F98",
"z. c #706F82",
"x. c #827C8A",
"c. c #8C7F87",
"v. c #7A8096",
"b. c #77839D",
"n. c #7B849B",
"m. c #7E889E",
"M. c #7E808F",
"N. c #7D8BA3",
"B. c #7888A2",
"V. c #7E91AC",
"C. c #848494",
"Z. c #898694",
"A. c #84879A",
"S. c #82899D",
"D. c #8E8C9B",
"F. c #8F8B92",
"G. c #928E98",
"H. c #93919E",
"J. c #9C9498",
"K. c #988687",
"L. c #AA9A98",
"P. c #B49D9A",
"I. c #AE928A",
"U. c #B7A29A",
"Y. c #BEA08E",
"T. c #838DA3",
"R. c #888FA3",
"E. c #8B91A4",
"W. c #8592AB",
"Q. c #8A95AA",
"!. c #9495A3",
"~. c #9A9BA5",
"^. c #9A9CAA",
"/. c #959AA9",
"(. c #8D9BB2",
"). c #8596B1",
"_. c #929DB3",
"`. c #A39EA5",
"'. c #9BA1B3",
"]. c #93A3BB",
"[. c #9AA5BA",
"{. c #96A4BA",
"}. c #9FA3AF",
"|. c #B7ADA4",
" X c #A4ABBD",
".X c #A8ADBD",
"XX c #A3A6B4",
"oX c #B2AEB7",
"OX c #B8B3B8",
"+X c #ADA7AB",
"@X c #C39B83",
"#X c #D5B796",
"$X c #D1AE8C",
"%X c #E6BB87",
"&X c #C6B8AD",
"*X c #96A8C1",
"=X c #9BAAC1",
"-X c #9FB1C9",
";X c #A3AEC2",
":X c #A5B1C6",
">X c #AEB4C3",
",X c #AAB6CA",
"<X c #A7B5CA",
"1X c #B2BBCD",
"2X c #BBBFCB",
"3X c #AFBED3",
"4X c #B2BED1",
"5X c #B4C1D5",
"6X c #BAC4D5",
"7X c #BAC8DB",
"8X c #C1CBDC",
"9X c #C3C8D1",
"0X c #C2CFE0",
"qX c #C9D6E7",
"wX c #C8D5E8",
"eX c None",
/* pixels */
"eXeXeXeXeXeXeXeXeXeXeXeXeXeXeXeXeXeXeXeXeXeXeXeXeXeXeXeXeXeXeXeXeXeXeXeXeXeXeXeXeXeXeXeXeXeXeXeXeXeXeXeXeXeXeXeXeXeXeXeXeXeXeXeX",
"eXeXeXeXeXeXeXeXeXeXeXeXeXeXeXeXeXeXeXeXeXeXeXeXeXeXeXeXeXeXeXeXeXeXeXeXeXeXeXeXeXeXeXeXeXeXeXeXeXeXeXeXeXeXeXeXeXeXeXeXeXeXeXeX",
"eXeXeXeXeXeXeXeXeXeXeXeXeXeXeXeXeXeXeXeXeXeXeXeXeXeXeXeXeXeXeXeXeXeXeXeXeXeXeXeXeXeXeXeXeXeXeXeXeXeXeXeXeXeXeXeXeXeXeXeXeXeXeXeX",
"eXeXeXeXeXeXeXeXeXeXeXeXeXeXeXeXeXeXeXeXeXeXeXeXeXeXeXeXeXeXeXeXeXeXeXeXeXeXeXeXeXeXeXeXeXeXeXeXeXeXeXeXeXeXeXeXeXeXeXeXeXeXeXeX",
"eXeXeXeXeXeXeXeXeXeXeXeXeXeXeXeXeX@ @ @ @ @ X @ o o @ X @ X @ o @ @ @ X o o o @ @ X @ @ @ o o o @ X @ eXeXeXeXeXeXeXeXeXeXeXeXeX",
"eXeXeXeXeXeXeXeXeXeXeXeXeXeXeXeX@ . . @ . . @ @ o o o o o o X @ X X X O o o o X X @ X X X o o o o o X @ eXeXeXeXeXeXeXeXeXeXeXeX",
"eXeXeXeXeXeXeXeXeXeXeXeXeXeXeXeX. @ @ @ @ . @ . X X X X X X X X X X X X o X X X X X @ X X X o o X o X X eXeXeXeXeXeXeXeXeXeXeXeX",
"eXeXeXeXeXeXeXeXeXeXeXeXeXeXeXo @ @ . . @ . . o X X X X X X X X X X X X X X X X X X . X X . . o o o o @ o eXeXeXeXeXeXeXeXeXeXeX",
"eXeXeXeXeXeXeXeXeXeXeXeXeXo @ o @ @ . . . @ o . X . X X . X X . X X X X X X X X X X . X . o . X X X X @ @ o @ eXeXeXeXeXeXeXeXeX",
"eXeXeXeXeXeXeXeXeXeXeXeXo o o X . @ @ @ @ @ $ $ @ @ @ @ $ @ @ @ @ @ @ @ @ @ o @ @ @ O @ $ $ @ @ @ @ o X X o X X eXeXeXeXeXeXeXeX",
"eXeXeXeXeXeXeXeXeXeXeXeX@ o o X . @ $ # & 7 8 8 8 3 3 3 3 3 3 3 3 3 2 2 2 3 3 2 2 2 3 5 8 8 7 2 # $ @ X X o o @ eXeXeXeXeXeXeXeX",
"eXeXeXeXeXeXeXeXeXeXeXeXo X o o @ $ # 7 p V B B N M c c z c z z c c c c c c c c c c M N B B V i 7 # @ X X o X o eXeXeXeXeXeXeXeX",
"eXeXeXeXeXeXeXeXeXeXeXeXo @ X X o @ 3 i I x.Z.Z.k.f.s.z.y.y.i.s.s.s.s.y.s.y.i.i.i.d.g.k.Z.Z.x.I i 2 $ X X X o o eXeXeXeXeXeXeXeX",
"eXeXeXeXeXeXeXeXeXeXeXeXo X X X . $ 7 V x./.'._.Q.S.S.v.n.n.B.S.n.n.v.m.n.n.n.b.m.b.T.E.'.'./.x.V 7 $ X X X o @ eXeXeXeXeXeXeXeX",
"eXeXeXeXeXeXeXeXeXeXeXeXX @ X X . $ 8 B Z.'.;X X_.R.B.T.T.).).T.N.m.m.T.W.W.W.T.n.T.T._.;X;X^.Z.B 8 $ . X X X @ eXeXeXeXeXeXeXeX",
"eXeXeXeXeXeXeXeXeXeXeXX @ X X X . @ 8 B D.^.;X'.E.v.k.l.T.Q.W.T.v.j.f.v.T.W.Q.T.v.j.v.E.[. X'.A.B 8 @ X X X o o eXeXeXeXeXeXeXeX",
"eXeXeXeXeXeXeXeXeX@ X @ X X X . . @ 5 M k.!._.R.d.L J y.v.T.T.v.y.H H y.k.T.T.n.y.J L d.E._./.M.N 5 @ . X X X @ eXeXeXeXeXeXeXeX",
"eXeXeXeXeXeXeXeXX @ X @ X @ o X . # 5 M f.T.T.k.H c z N f.B.B.f.N z z N f.S.B.a.N a a H M.T.m.f.M 5 # . X X @ X eXeXeXeXeXeXeXeX",
"eXeXeXeXeXeXeXeXX X X @ X X o o @ 1 5 v f.n.v.s.c 8 8 c s.k.v.s.c 8 8 v i.v.n.i.c 0 0 c i.n.m.i.c 5 @ . X X X o eXeXeXeXeXeXeXeX",
"eXeXeXeXeXeXeXeX@ @ X X X @ o + 1 1 l H j.n.l.y.u 3 5 u y.l.k.y.u 3 3 u i.k.k.y.u 3 6 u P v.v.i.c 3 @ X X X @ o eXeXeXeXeXeXeXeX",
"eXeXeXeXeXeXeXeXX X @ X X o O % 4 r n t.l.B.k.y.u 3 3 u y.v.v.y.u 5 3 u y.k.k.y.u 3 3 u P v.b.i.c 3 @ X X o X @ eXeXeXeXeXeXeXeX",
"eXeXeXeXeXeXeXeX@ X X X X O + 1 y v A p.b.N.n.y.z 5 8 c s.v.v.y.c 8 8 z s.v.n.i.c 0 e c i.v.n.i.c 3 @ . X X X @ eXeXeXeXeXeXeXeX",
"eXeXeXeXeXeXeXeXX @ @ X X O % 4 l n t.B.B.T.B.d.N z z N j.n.n.f.v z z v d.n.B.a.N z i N f.n.b.i.c 3 @ o X o o o eXeXeXeXeXeXeXeX",
"eXeXeXeXeXeXeXeX@ X X X X O % e v u.h.B.V.W.T.l.y.H H y.k.N.N.l.y.H H y.l.N.T.v.y.J H y.v.N.b.i.c 3 @ . X X o o eXeXeXeXeXeXeXeX",
"eXeXeXeXeXeXeXeX@ X X X X @ 1 u H a.B.V.W.).V.N.v.j.f.v.N.W.W.N.k.h.f.l.N.W.W.N.v.v.f.n.V.T.n.i.z 2 o X X X o o eXeXeXeXeXeXeXeX",
"eXeXeXeXeXeXeXeXX @ @ X X O 2 u y.l.T.).(.(.Q.W.T.n.m.T.T.Q.Q.W.T.T.S.T.W.Q.Q.W.N.m.m.N.Q.W.n.i.c 2 O X X o o o eXeXeXeXeXeXeXeX",
"eXeXeXeXeXeXeXeXX @ X X X @ 2 z i.n.Q._./././.E.S.m.m.S.D././.~.!.!.!.~.~.H.!.E.m.m.m.T.E.G.Z.U a 3 O X X X o o eXeXeXeXeXeXeXeX",
"eXeXeXeXeXeXeXeX@ X X X X O 3 c i.S.Q.^.~.L.J.F.M.f.f.v.F.J.L.L.P.L.P.L.L.L.J.F.M.f.M.v.G.J.*.} g 7 O X X o o o eXeXeXeXeXeXeXeX",
"eXeXeXeXeXeXeXeXX @ X X X @ 3 c i.S./.`.P.I.$.| I H H I *.$.&.@X@X@X@X@X<.I.$.*.I H H U | $.+.^ h = $ X X X X o eXeXeXeXeXeXeXeX",
"eXeXeXeXeXeXeXeX@ X X X X @ 4 z y.S.~.`.Y.<.%.{ F a u F { @.<.,.1.1.1.1.4.<.@.{ F a a F { %.@.^ h 7 @ X X o o o eXeXeXeXeXeXeXeX",
"eXeXeXeXeXeXeXeXX X X X X @ 2 z y.S.!.U.@X3.;.^ g 9 9 g ^ @.2.7.9.7.>.9.7.,.;.{ g 9 9 j { @.-.' h * $ X X o o o eXeXeXeXeXeXeXeX",
"eXeXeXeXeXeXeXeX@ X o X . @ 2 z p.S.~.U.$X3.:.^ g 9 9 g ^ :.7.r.r.7.r.r.r.7.;.' g 6 9 g ' ;.-.] E * @ X X o o o eXeXeXeXeXeXeXeX",
"eXeXeXeXeXeXeXeXo o X X X @ 3 z i.m.~.|.$X5.:.+.g 9 9 j { :.8.q.q.q.q.q.q.8.<.{ g 9 9 j +.#.:.O.R < - X X X X X eXeXeXeXeXeXeXeX",
"eXeXeXeXeXeXeXeXo o o X X o 3 z p.N.~.|.#X6.3.+.Y w w Y +.4.q.e.w.w.e.e.e.q.2.+.F w w Y +.:.4.O.R < o X X X X O eXeXeXeXeXeXeXeX",
"eXeXeXeXeXeXeXeXo o X X . @ 1 z P m.~.|.#X%X4.#./ Y j Y @.5.0.e.e.%Xe.e.e.q.4.@.Y j j [ #.4.4.O.h < o X X X o o eXeXeXeXeXeXeXeX",
"eXeXeXeXeXeXeXeXo X o . . o 1 z P m.~.|.#X%X6.3.+.*.[ +.:.5.q.q.w.q.q.q.e.0.5.:.+.[ +.+.3.6.4.O.R * o X X X o o eXeXeXeXeXeXeXeX",
"eXeXeXeXeXeXeXeXo o X X . o 1 z P m.`.|.#X%X%X6.:.&.#.:.2.7.8.r.8.8.8.r.8.8.9.2.:.#.&.4.6.0.4.@.R < $ X X X X o eXeXeXeXeXeXeXeX",
"eXeXeXeXeXeXeXeXo o X o o $ 5 c a.m.~.|.#X#X%X0.5.4.4.4.2.2.>.>.>.>.>.>.>.>.>.,.2.4.5.6.0.%X4.@.R s # o X X o o eXeXeXeXeXeXeXeX",
"eXeXeXeXeXeXeXeXo o @ # = 8 i P M.V.~.|.Y.3.4.4.4.2.:.:.-.-.=.=.=.=.=.=.=.-.-.;.:.2.4.6.%X%X$X&.+.j 9 % + o o o eXeXeXeXeXeXeXeX",
"eXeXeXeXeXeXeXX X $ # 2 i V z.x.E.}.}.`.I.#.O.O.O.O.O.O.' _ ( ( ) ) ) ) ) ) ) ' ' @.#.3.#X#X$XY.*.U F p 2 % o X o eXeXeXeXeXeXeX",
"eXeXeXeXeX@ X . . $ 2 p J x.H.'..X:X}.J.*./ Y R E E Q E f f f f : : : : : f : f E R ^ $.P.&X&X&X+X!.x.J i & @ . X X o eXeXeXeXeX",
"eXeXeXeX@ X X X . @ 8 V x.^.;X4X5X5X.X~.U j < < s s * q < ; * < * * * * * * * * * s k } L.OX2X9X2XoX^.x.V 7 @ X X X o o eXeXeXeX",
"eXeXeXeX@ X X X . $ 8 B G..X2X0X7X6X>X~.s.j w w 8 q q q 8 q q q q q q q q q 8 8 7 w M U /.>X6X0X8X6X.XG.B 8 @ . X X o o eXeXeXeX",
"eXeXeX$ X @ X . @ $ 8 I H.>X0XwXqX7X1X~.M.J a a c N D y.J J J J J J J D B B B M z c H k.^.,X8XwXqX8X>XH.J 0 @ X X X o o o eXeXeX",
"o o o o @ X X . . @ 8 J !.>X8XwXqX8X1X XR.k.s.s.x.x.c.c.Q.c._.x.D.!.D.D.E.D.C.k.d.s.k.T.XX4X0XwXqX8X>X!.J 0 @ . X X X @ o o @ X ",
"o o o X X o X X . # 8 J G.;X6X0X8X7X4X;X_.W.W.E._.[.<X:X>X X;X-X X X.X.X.X XXX_.Q.T.W._.;X4X7X0X0X6X.XD.J 0 # X X X X o o o X @ ",
"o o o o o o o o O 1 p D C.'.,X5X6X5X3X:X].].].{.<X4X5X5X4X,X-X<X;X<X,X1X4X4X4X<X[.].(.].:X3X4X5X5X,X'.Z.H 0 1 O o o o o o o o o ",
"o o o o X o o + + 3 t H k.Q.{.;X<X,X<X:X*X].].-X3X7X7X5X,X=X*X*X{.[.=X,X5X7X7X3X-X*X*X*X-X<X,X,X;X[.Q.k.H u 4 + + o o X X X X @ ",
"@ o o X o o # 1 6 r x m y.l.T.Q.=X=X-X=X].].*X-X4X5X5X,X=X).x.l.l.l.).[.,X4X7X4X:X*X].].=X=X=X_.).N.l.u.m x y 4 % + o o o o o o ",
"o X o X . O # 1 y l b b t.p.a.b.x.).(.(.).(.[.>X4X4X1X;Xx.x.l.p.h.a.x._. X1X4X1X;X{.(._.(.(.).T.b.a.p.t.m b l y 6 + o X X o o o ",
"@ X o X o o 1 4 l x n m t.t.t.p.h.l.x.x.x.[.'.oXOX2XoX^.x.z.y.y.t.y.x.c.^.oXOX>XXX^.!.D.R.T.l.h.a.t.Z Z S b x t 6 + O X X o o o ",
"o @ X X . O + 4 l x t.t.m m m t.u.u.d.x.c.c.c.P.P.P.P.c.c.x.Q J V }  .c.c.P.P.P.I.J.c.c.x.z.y.u.A Z m Z t.m b l 4 + O o X X o o ",
"@ X X X X @ # 4 t b m t.t.m b b v c M } } ..o.o.%.%.%.o...` ~ ~ ~ ~ ....o.%.@X%.o.o... .C M v b n n t.t.t.b b l 4 % @ X X X o o ",
"@ X @ X X @ + 4 t x b t.m b x l e 8 q d Q ` X.X.X.X.X.X._ ( ( ( ( ( ( _ _ X.X.X.X.X.~ Q f 8 8 8 l x b m t.b x l 4 # o X X o X @ ",
"X X @ X X o # 6 y l x b b x l y 4 % 2 ; E W _ _ X._ _ _ ( ( ! ! ! ! ! ( _ _ _ _ _ ( Q E ; = 1 6 y l x x x x l y 6 + o X o X o o ",
"@ X X X X o # # 4 y y l l l y 4 % # - = > Q Q ~ ( Q Q W W T T T T T W W W Q ~ ~ ~ Q Q f * $ O + 4 y l l l t y 4 1 + o o X o o o ",
"@ o o X X o O # 1 4 4 4 4 4 4 + + o # 7 d k V C C C C E f > , , ; ; > f k C C C G C j d 3 $ @ O 1 6 4 4 4 4 1 1 # o o X o X o o ",
"X o o o o o o O + + + + 1 + + + o o # 8 z c y.u.y.B N c q = = - - = * q c B B y.L H N u 5 # O o o + # # + # + @ O o o o o o o o ",
"@ X o X o o o o X O X O O O X X X o 1 8 v y.u.h.p.u.t.c 8 2 o o - - 2 8 b u.u.p.a.p.K v e # @ X o o o O O O @ o o o o o o o o o ",
"@ o o o o o o o X X X X . X X X o o 1 u t.d.l.x.x.l.a.H u 2 o . . X # 8 t.l.l.x.N.b.f.K u 2 @ X . . X o X X X X o o X o o o o o ",
"eXeXeXo X o o X X X X X o X X . . @ 3 c l.x._.=X-X].x.l.c 2 o     o 2 c x.x.*X=X=X_.T.s.c 3 @ . o X X X X X X X X o X o o eXeXeX",
"eXeXeXeX@ o X o o o o X o o X X X @ 8 B x.'.,X4X7X<X*Xx.B 8 o .   o 8 B x.'.<X5X4X,X'.C.B 8 @ X . o X @ @ X @ X o o o @ eXeXeXeX",
"eXeXeXeXo X o o o o o o o o X X X @ 8 J !.;X6X0X0X7X:Xc.J 8 o     o 8 B c. X7X0X0X6X.XG.D 8 @ X X X X X X o X X o o o o eXeXeXeX",
"eXeXeXeX@ o o o o o o o o X X X X $ 8 z.c.1X8XwXwX8X,X/.J 8 @ . . o 8 y./.>X8XwXqX8X>XH.J 0 $ . X X X @ o o @ @ o o o o eXeXeXeX"
};
