/* XPM */
static char *_568973dd882480ae7424e7d9522d2a4HQK7JMprbnadNR4F[] = {
/* columns rows colors chars-per-pixel */
"64 64 216 2 ",
"   c None",
".  c #371D29",
"X  c #391F2A",
"o  c #3C232E",
"O  c #3E2631",
"+  c #3F2935",
"@  c #3F2C3A",
"#  c #412934",
"$  c #422E3B",
"%  c #442A34",
"&  c #43313F",
"*  c #49343F",
"=  c #5D3D3D",
"-  c #54363B",
";  c #48292F",
":  c #6A3F3A",
">  c #754A3D",
",  c #70443F",
"<  c #6F4039",
"1  c #5E413F",
"2  c #443443",
"3  c #4B3643",
"4  c #4B3946",
"5  c #453B4C",
"6  c #4E3D4A",
"7  c #453B48",
"8  c #513B45",
"9  c #513E4B",
"0  c #4A424C",
"q  c #53414D",
"w  c #5A444E",
"e  c #56484C",
"r  c #4A4255",
"t  c #494459",
"y  c #4A495F",
"u  c #474357",
"i  c #554B5B",
"p  c #5A4D5C",
"a  c #574753",
"s  c #59505D",
"d  c #624443",
"f  c #684B4E",
"g  c #744B45",
"h  c #65524E",
"j  c #7A5447",
"k  c #6A5756",
"l  c #735858",
"z  c #4B4C63",
"x  c #584F60",
"c  c #4E546D",
"v  c #5B5263",
"b  c #56556A",
"n  c #4F5873",
"m  c #515A74",
"M  c #505E7B",
"N  c #655865",
"B  c #635B6B",
"V  c #695E6C",
"C  c #675862",
"Z  c #765F63",
"A  c #52617D",
"S  c #5A6179",
"D  c #4F607D",
"F  c #6C606E",
"G  c #6F6061",
"H  c #786266",
"J  c #656274",
"K  c #6D6271",
"L  c #61657B",
"P  c #696678",
"I  c #6A6A7C",
"U  c #736A75",
"Y  c #7C727B",
"T  c #746158",
"R  c #91523F",
"E  c #835C4C",
"W  c #825547",
"Q  c #935949",
"!  c #8E5D53",
"~  c #A45F47",
"^  c #946458",
"/  c #9A735C",
"(  c #856B5B",
")  c #A6644D",
"_  c #A16A4D",
"`  c #AA6B55",
"'  c #A36853",
"]  c #A87759",
"[  c #B4775D",
"{  c #8D7463",
"}  c #977764",
"|  c #846E71",
" . c #927D7B",
".. c #916E66",
"X. c #A37768",
"o. c #B87961",
"O. c #AE7F71",
"+. c #B3845E",
"@. c #A58466",
"#. c #B58966",
"$. c #BA946D",
"%. c #A98A79",
"&. c #B88776",
"*. c #BC9773",
"=. c #96827C",
"-. c #C5865A",
";. c #C68A5E",
":. c #C38C63",
">. c #C8976A",
",. c #DE9C67",
"<. c #D79E6B",
"1. c #CA9976",
"2. c #D69D74",
"3. c #D3A06F",
"4. c #CBA377",
"5. c #D3A472",
"6. c #D9A977",
"7. c #DFB17D",
"8. c #E8A66D",
"9. c #EDAD71",
"0. c #E2A770",
"q. c #E8B47A",
"w. c #F5B677",
"e. c #F6BB7B",
"r. c #F7BB7B",
"t. c #F1AC6E",
"y. c #576681",
"u. c #6C6D82",
"i. c #636E86",
"p. c #6F7185",
"a. c #66718A",
"s. c #6C768E",
"d. c #737386",
"f. c #73768A",
"g. c #75798D",
"h. c #7D7A8B",
"j. c #6C7A94",
"k. c #757D93",
"l. c #7B7E92",
"z. c #747F98",
"x. c #706F82",
"c. c #827C8A",
"v. c #8C7F87",
"b. c #7A8096",
"n. c #77839D",
"m. c #7B849B",
"M. c #7E889E",
"N. c #7E808F",
"B. c #7D8BA3",
"V. c #7888A2",
"C. c #7E91AC",
"Z. c #848494",
"A. c #898694",
"S. c #84879A",
"D. c #82899D",
"F. c #8E8C9B",
"G. c #8F8B92",
"H. c #928E98",
"J. c #93919E",
"K. c #9C9498",
"L. c #988687",
"P. c #AA9A98",
"I. c #B49D9A",
"U. c #AE928A",
"Y. c #B7A29A",
"T. c #BEA08E",
"R. c #838DA3",
"E. c #888FA3",
"W. c #8B92A4",
"Q. c #8592AB",
"!. c #8A95AB",
"~. c #9495A3",
"^. c #9A9BA5",
"/. c #9A9CAA",
"(. c #959AA9",
"). c #8D9BB2",
"_. c #8596B1",
"`. c #929DB3",
"'. c #A39EA5",
"]. c #9BA1B3",
"[. c #93A3BB",
"{. c #9AA5BA",
"}. c #96A4BA",
"|. c #9FA3AF",
" X c #B7ADA4",
".X c #A4ABBD",
"XX c #A8ADBD",
"oX c #A3A6B4",
"OX c #B2AEB7",
"+X c #B8B3B8",
"@X c #ADA8AB",
"#X c #C39B83",
"$X c #D5B796",
"%X c #D1AE8C",
"&X c #E6BB87",
"*X c #C6B8AD",
"=X c #96A8C1",
"-X c #9BAAC1",
";X c #9FB1C9",
":X c #A3AEC2",
">X c #A5B1C6",
",X c #AEB4C3",
"<X c #AAB6CA",
"1X c #A7B5CA",
"2X c #B2BBCD",
"3X c #BBBFCB",
"4X c #AFBED3",
"5X c #B2BED1",
"6X c #B4C1D5",
"7X c #BAC4D5",
"8X c #BAC8DB",
"9X c #C1CBDC",
"0X c #C3C8D1",
"qX c #C2CFE0",
"wX c #C9D6E7",
"eX c #C8D5E8",
/* pixels */
"                                                                                                                                ",
"                                                                                                                                ",
"                                                                                                                                ",
"                                                                                                                                ",
"                                  O O O O O O O O O O O O O O O O O O O O O O O O O O O O O O O O O O                           ",
"                                O O O O O O O O O O O O O O O O O O O O O O O O O O O O O O O O O O O O                         ",
"                                O O O O o o o o o o o o o o o o o o o o o o o o o o o o o o o o O O O O                         ",
"                              O O O O o o o o o o o o o o o o o o o o o o o o o o o o o o o o o o O O O O                       ",
"                          O O O O O O o o o o o o o o o o o o o o o o o o o o o o o o o o o o o o O O O O O O                   ",
"                        O O O O O O O # # # # # # # # # # # # # # # # # # # # # # # # # # # # # # O O O O O O O                 ",
"                        O O O O O O # $ 3 8 9 9 6 6 4 4 4 4 4 4 4 4 4 4 4 4 4 4 4 4 6 6 9 9 8 3 $ # O O O O O O                 ",
"                        O O O o o # $ 9 p N V V B v v v v v v v v v v v v v v v v v v B V V N p 9 $ # o o O O O                 ",
"                        O O o o o # 3 p U c.A.S.l.g.d.p.u.u.u.p.d.d.d.d.p.u.u.u.p.d.g.l.S.A.c.U p 3 # o o o O O                 ",
"                        O O o o o # 8 N c.~.].].!.R.m.m.m.m.m.m.m.m.m.m.m.m.m.m.m.m.R.!.].].~.c.N 8 # o o o O O                 ",
"                        O O o o o # 9 V A.].:X.X`.E.B.B.R.Q.Q.R.R.m.m.R.R.Q.Q.R.B.B.E.`..X:X].A.V 9 # o o o O O                 ",
"                      O O O o o o # 9 V A.]..X{.W.b.k.b.R.Q.Q.R.m.k.k.m.R.Q.Q.R.b.k.b.W.{..X].S.V 9 # o o o O O                 ",
"                  O O O O O o o o # 6 N l.!.`.E.f.P J u.m.R.R.m.u.J J u.m.R.R.m.u.J P f.E.`.!.l.B 6 # o o o O O                 ",
"                O O O O O O o o o # 6 N g.R.R.l.J s p B f.m.m.g.B p p B g.m.m.f.B p s J l.R.R.g.v 6 # o o o O O                 ",
"                O O O O O O O O + & r b f.m.m.d.v q q v p.m.m.p.v q q v p.m.m.p.v q q v d.m.m.d.v 4 # o o o O O                 ",
"                O O O o o O O + $ 7 i S k.m.b.u.i 4 4 i u.b.b.u.i 4 4 i u.b.b.u.i 4 4 i u.k.b.p.v 4 # o o o O O                 ",
"                O O O o o O + & 5 t b i.z.V.m.I i 4 4 i u.b.b.u.i 4 4 i u.b.b.u.i 4 4 i u.b.m.p.v 4 # o o o O O                 ",
"                O O O o o O $ 2 u c S a.n.B.m.u.v 9 q v p.m.m.p.v 6 6 v p.m.m.p.v q q v p.m.m.p.v 4 # o o o O O                 ",
"                O O o o o O & 5 z m i.j.B.C.m.f.B p p B f.m.m.f.B i i B f.m.m.f.B p p B f.m.m.p.v 4 # o o o O O                 ",
"                O O o o o + 2 r b i.j.V.C.Q.B.k.I J J u.b.B.B.z.u.J J u.z.B.B.b.u.J J u.m.B.m.p.v 4 # o o o O O                 ",
"                O O o o o # 2 i J s.V.C._._.Q.B.b.g.k.b.B.Q.Q.B.z.g.g.z.B.Q.Q.B.b.k.k.m.R.Q.m.p.v 4 # o o o O O                 ",
"                O O o o o # 3 i I z.Q._.).).!.Q.R.M.M.R.Q.!.!.!.R.D.D.R.!.!.!.Q.R.M.B.R.Q.Q.m.x.v 4 # o o o O O                 ",
"                O O o o o # 4 x u.m.!.`.(.(.~.W.D.M.M.D.W.~.~.^.~.~.~.~.^.~.~.W.D.M.M.R.W.W.A.Y k 3 # o o o O O                 ",
"                O O o o o # 4 v p.D.!./.'.P.K.G.N.g.g.b.G.K.P.P.P.P.P.P.P.P.K.G.N.g.k.Z.H.K.L.| h 8 # o o o O O                 ",
"                O O o o o # 4 v p.D.(.'.I.U.%. .U J J U  .%.T.#X#X#X#X#X#XT.%. .U J J U =.%.%...f - # o o o O O                 ",
"                O O o o o + 4 v u.D.~.'.T.1.&.} k s s k } #.1.2.2.2.2.2.2.1.#.} C s s G } #.#.] j - # o o o O O                 ",
"                O O o o o + 4 v u.D.^.Y.#X1.#./ h 0 0 h / :.,.8.8.8.8.8.8.,.:./ h 0 0 k / #.:.] j - % o o O O O                 ",
"                O O o o o + 4 v u.D.^.Y.%X5.:./ h 7 7 h / :.8.t.t.t.t.t.t.8.:./ h 7 7 h ] :.:.[ E = % o o O O O                 ",
"                O O o o o # 4 v u.D.^. X%X6.>.] h 0 0 h } >.9.w.w.w.w.w.w.9.>.} h 0 0 k @.>.>.+.E = % o o o O O                 ",
"                O O o o o # 3 x u.D.^. X$X&X4.@.l e e l @.5.q.r.r.r.r.r.r.q.5.@.l e a T @.1.>.#.E = % o o o O O                 ",
"                O O o o o O 3 x u.D.^. X$X&X6.$.( k k ( #.5.q.r.r.r.r.r.r.q.5.#.( k l { $.5.5.#.E = % o o o O O                 ",
"                O O o o o O 2 i u.S.^. X$X&Xq.4.@.{ { @.>.6.w.e.e.w.w.e.e.q.6.>.@.{ } @.4.6.5.#.E = # X o o O O                 ",
"                O O o o X O 2 i u.S.^. X$X&X&Xq.4.*.$.>.3.0.9.9.9.9.9.9.9.9.0.3.>.$.*.4.q.q.5.#.E = ; X o o O O                 ",
"                O O O O O $ 6 v p.D./. X$X&Xq.q.6.5.5.3.<.,.,.,.,.,.,.,.,.,.,.<.<.5.5.7.&Xq.5.#.E d $ O O O O O                 ",
"                o O # $ * 9 p P b.W./.@X#X4.5.5.5.3.>.>.:.;.-.-.-.-.-.-.-.-.;.:.>.<.5.7.&X&X%X*.{ k q 2 $ # O o                 ",
"              o o # $ 4 a N U Z.!.`.|.'.U.%.#.+.#.+.+.] ] _ _ _ _ _ _ _ _ _ _ ] ] #.$.4.%X$X$XT.L.Y N a 4 $ O o o               ",
"          O o o o # 3 a K c.~.].:X>XoXK. .( E E E E E j j g > > > > > > > > > g j E / %.T.*X*X+X@XK.c.K a 3 # o o o O           ",
"        O O o o o # 8 C c./.XX2X6X2XXXJ.Y k d 1 1 d d d w = = = = = = = = = = = = d l | P.+X0X0X3XXX/.c.C 4 # o o o O O         ",
"        O O o o o # 9 F F.XX7X9XqX7X,X~.Y C w 8 q q w w w w w w w w w w w w q 9 8 w C Y ~.,X7XqX9X7XXXF.F 9 # o o o O O         ",
"      O O O o o o # q K ~.,X9XwXwX9X2X/.h.J v x v B V F F K K K K K K F F V B v v v J h.(.<X8XeXwX9X,X~.K q # o o o O O O       ",
"O O O O O O o o X # q K J.,X9XwXwX9X2X.XE.l.f.f.l.A.F.F.F.F.F.J.J.J.F.F.F.F.A.l.f.f.l.E.{.2X8XwXwX8X,XJ.K q # X o o O O O O O O ",
"O O O O O O o o o $ q K F.XX7XqXqX8X5X:X`.!.E.!.`.oX.X.X.X.X.X.X.X.X.X.XXX.XoX`.!.E.Q.`.:X5X8X9XqX7X.XF.K q $ o o o O O O O O O ",
"O O O O O O O O + & a K A.].<X6X6X6X4X>X[.`.[.{.1X5X6X5X2X<X>X>X>X>X<X2X5X6X5X1X{.[.`.[.>X4X6X7X6X<X].A.K a & + O O O O O O O O ",
"O O O o o O O + @ 7 i J l.W.}.:X<X<X1X>X=X[.=X;X4X8X8X6X<X-X{.}.}.{.-X<X6X8X8X4X;X=X[.=X>X<X<X<X:X}.W.l.J i 7 & + O O o o O O O ",
"O O O o o O # 2 5 t c S a.z.B.!.[.{.-X-X[.[.=X>X4X8X6X<X[.Q.B.V.V.B.Q.[.<X6X8X4X>X=X[.[.=X-X{.[.!.B.z.a.S c t 5 2 $ O o o O O O ",
"O O O o o O $ 2 u z m A y.i.s.n.R.!.).).).`.}.:X2X2X2X.X!.n.s.a.a.s.n.!..X2X2X2X:X}.).).).).!.R.n.s.i.y.A m z u 7 $ O o o O O O ",
"O O o o o O $ 7 y c M A A y.y.a.j.m.D.R.E.~./.oXOX+XOX'.A.d.P J J P d.A.'.OX+XOXoX/.~.W.R.D.m.j.a.y.y.A A M c y 5 $ O o o o O O ",
"O O o o o O $ 5 z n M A D M A S L u.d.h.v.L.U.P.I.Y.I.U. .| H Z Z H |  .U.I.Y.I.P.U.L.v.h.d.u.L S A M D A M n z 5 $ O o o o O O ",
"O O o o o O $ 5 z n M y.A M m m c v C Z ..X.O.&.&.&.&.&.X./ ^ ^ ^ ^ / X.&.&.&.&.&.O.X...Z C v c m m M A y.M n z 5 $ O o o o O O ",
"O O o o o O $ 5 y c m M M m c z t 6 w f ! ^ [ [ o.o.[ [ ` ` ' ) ) ' ` ` [ [ o.o.[ [ ' ! f w 6 u z c m M M m c y 7 $ O o o o O O ",
"O O O o o O $ 7 t z c n n c z u 7 2 - : W Q ' ` ` ` ` ) ) ) ~ ~ ~ ~ ) ) ) ` ` ` ` ' Q W : - & 7 u z c n n c z t 2 $ O o o O O O ",
"O O O o o O $ 2 5 t y z z y u 5 @ # % = g E ! ^ ^ ^ ! Q Q Q R R R R Q Q Q ! ^ ^ ^ ^ E g = % # @ 5 u y z z y t 5 2 $ O o o O O O ",
"O O O o o O + $ 2 2 7 5 5 7 2 & + # % 8 f k Z H H Z l l g , < : : < , g l l Z H H Z k f 8 % # + & 2 7 5 5 7 2 2 $ + O o o O O O ",
"O O O O O O O + $ $ $ $ $ $ $ + O + $ 6 p B J P P J B s w - - ; ; - - w s B J P P J B p 6 $ + O + $ $ $ $ $ $ $ + O O O O O O O ",
"O O O O O O O O O O O O O O O O o O & r b L a.s.s.a.L b q * # ; ; # * q b L a.s.s.a.L b r & O o O O O O O O O O O O O O O O O O ",
"O O O O O O O o o o o o o o o o o # 2 i L s.n.B.B.n.s.J i 2 O X X O 2 i J s.n.B.B.n.s.L i 2 # o o o o o o o o o o O O O O O O O ",
"      O O O O o o o o o o o o o o # 4 v d.R.[.-X-X[.R.d.v 4 O . X O 4 v d.R.[.-X-X[.R.d.v 4 # o o o o o o o o o o O O O O       ",
"        O O O O O O o o o o o o o # 9 B Z.].<X6X6X<X].Z.B 6 O . . O 6 B Z.].<X6X6X<X].Z.B 9 # o o o o o o o O O O O O O         ",
"        O O O O O O O O O o o o o # q F F.XX7XqXqX7XXXF.F 9 # . . # 9 F F.XX7XqXqX7XXXF.F q # o o o o O O O O O O O O O         ",
"        O O O O O O O O O O o o o # q K J.,X9XwXwX9X,XJ.K q # . . # q K J.,X9XwXwX9X,XJ.K q # o o o O O O O O O O O O O         "
};
