/* XPM */
static char *wall[] = {
/* columns rows colors chars-per-pixel */
"64 64 210 2 ",
"   c #4F5D79",
".  c #505E7A",
"X  c #4E5C78",
"o  c #4D5C78",
"O  c #4D5B78",
"+  c #53617D",
"@  c #52617C",
"#  c #52607C",
"$  c #51607B",
"%  c #515F7B",
"&  c #53617C",
"*  c #53627D",
"=  c #54627E",
"-  c #5A6884",
";  c #5A6984",
":  c #5A6883",
">  c #596782",
",  c #576580",
"<  c #566580",
"1  c #586782",
"2  c #5B6984",
"3  c #5D6C86",
"4  c #5F6E88",
"5  c #616F89",
"6  c #63708A",
"7  c #63718B",
"8  c #63708B",
"9  c #66748F",
"0  c #667590",
"q  c #65748E",
"w  c #62718C",
"e  c #5E6C87",
"r  c #55637F",
"t  c #576681",
"y  c #5D6C87",
"u  c #687791",
"i  c #6D7C95",
"p  c #738199",
"a  c #77849C",
"s  c #7A869E",
"d  c #7B879F",
"f  c #7A879F",
"g  c #7A869F",
"h  c #74849E",
"j  c #75849E",
"k  c #75849F",
"l  c #75859F",
"z  c #73839C",
"x  c #6E7D98",
"c  c #677590",
"v  c #5D6B87",
"b  c #586682",
"n  c #5C6B86",
"m  c #657490",
"M  c #6F7E99",
"N  c #7988A1",
"B  c #8290A8",
"V  c #8B98AF",
"C  c #929EB4",
"Z  c #96A2B7",
"A  c #98A3B9",
"S  c #97A3B8",
"D  c #8090A9",
"F  c #8190AA",
"G  c #8191AA",
"H  c #7E8EA7",
"J  c #7887A1",
"K  c #6E7C98",
"L  c #61708B",
"P  c #606F8A",
"I  c #6C7C96",
"U  c #7988A2",
"Y  c #8594AD",
"T  c #919FB6",
"R  c #9CA9BE",
"E  c #A4B0C4",
"W  c #A9B4C8",
"Q  c #ABB6CA",
"!  c #AAB6C9",
"~  c #8898B1",
"^  c #8999B2",
"/  c #8696AF",
"(  c #73819C",
")  c #64728D",
"_  c #5C6A86",
"`  c #63728D",
"'  c #71819B",
"]  c #808FA8",
"[  c #8D9CB5",
"{  c #99A7BE",
"}  c #A4B1C6",
"|  c #ACB8CC",
" . c #B1BDD0",
".. c #B3BFD2",
"X. c #B2BED1",
"o. c #8C9CB5",
"O. c #8D9DB6",
"+. c #65748F",
"@. c #65738E",
"#. c #74839D",
"$. c #8292AB",
"%. c #8F9FB7",
"&. c #9AA9C0",
"*. c #A3B1C6",
"=. c #A9B7CB",
"-. c #ADBACE",
";. c #AFBCD0",
":. c #AFBBCF",
">. c #AEBBCF",
",. c #8B9BB4",
"<. c #74839E",
"1. c #8192AB",
"2. c #94A4BB",
"3. c #99A9BF",
"4. c #9DACC2",
"5. c #9FAEC4",
"6. c #A0AEC4",
"7. c #8A9AB3",
"8. c #90A0B8",
"9. c #92A2B9",
"0. c #93A3BA",
"q. c #94A3BB",
"w. c #8D9DB5",
"e. c #8C9DB5",
"r. c #8695AF",
"t. c #7E8DA7",
"y. c #8897B1",
"u. c #8797B0",
"i. c #72819C",
"p. c #5B6A85",
"a. c #8998B2",
"s. c #7F8FA9",
"d. c #808FA9",
"f. c #6E7C97",
"g. c #616F8A",
"h. c #8090AA",
"j. c #7786A1",
"k. c #6D7C97",
"l. c #596883",
"z. c #73829D",
"x. c #74829D",
"c. c #74849D",
"v. c #73829C",
"b. c #66758F",
"n. c #576581",
"m. c #6D7D97",
"M. c #6C7B96",
"N. c #65738F",
"B. c #566480",
"V. c #64738E",
"C. c #667490",
"Z. c #60708A",
"A. c #5F6E89",
"S. c #5B6985",
"D. c #5E6C88",
"F. c #5F6C88",
"G. c #5D6B86",
"H. c #586681",
"J. c #5E6D88",
"K. c #65738D",
"L. c #66738D",
"P. c #64728C",
"I. c #62708B",
"U. c #606E89",
"Y. c #65728D",
"T. c #65728C",
"R. c #65748D",
"E. c #79869E",
"W. c #78859D",
"Q. c #76839C",
"!. c #728099",
"~. c #6D7B94",
"^. c #677690",
"/. c #79859E",
"(. c #96A3B7",
"). c #97A3B7",
"_. c #98A3B8",
"`. c #98A4B8",
"'. c #919EB4",
"]. c #7887A0",
"[. c #6F7D98",
"{. c #99A4B9",
"}. c #98A4B9",
"|. c #ABB7CA",
" X c #A9B5C8",
".X c #A4B1C5",
"XX c #9CA9BF",
"oX c #919FB7",
"OX c #596884",
"+X c #AAB5C8",
"@X c #ACB7CA",
"#X c #ACB7CB",
"$X c #ABB6C9",
"%X c #ACB9CC",
"&X c #99A8BF",
"*X c #63718D",
"=X c #5B6A86",
"-X c #99A7BF",
";X c #B4BFD2",
":X c #B3BED1",
">X c #5F6D88",
",X c #66748D",
"<X c #91A2B9",
"1X c #8C9DB6",
"2X c #8898B2",
"3X c #899AB3",
"4X c #8A9BB4",
"5X c #8B9CB5",
"6X c #8999B3",
"7X c white",
/* pixels */
"                                                . . . .     X X o O O O O O O O O O O O O O O o X X     . . . .                 ",
"+ + + + + + + + + + + + + + + + + + + + + @ # # $ % % % # # @ & * * = = = = = = = = = = = = * * & @ # # % % % $ # # @ + + + + + ",
"- - - - - - - - - - - - - - - - - - ; ; ; : > , = @ @ = < 1 2 3 4 5 6 7 7 8 8 8 8 8 8 7 7 6 5 4 3 2 1 < = @ @ = , > : ; ; ; - - ",
"9 9 9 9 9 9 9 9 9 9 9 9 9 9 9 9 9 9 0 0 0 q w e 1 r r t y w u i p a s d f f f g g f f f d s a p i u w y t r r 1 e w q 0 0 0 9 9 ",
"h h h h h h h h h h h h h h h h h j j k l z x c v b t n m M N B V C Z A A S S S S S S A A Z C V B N M m n t b v c x z l k j j h ",
"D D D D D D D D D D D D D D D D D D F G G H J K L ; - P I U Y T R E W Q Q Q ! ! ! ! Q Q Q W E R T Y U I P - ; L K J H G G F D D ",
"~ ~ ~ ~ ~ ~ ~ ~ ~ ~ ~ ~ ~ ~ ~ ~ ~ ~ ^ ^ ^ / H ( ) _ _ ` ' ] [ { } |  .......X.X.X.X....... .| } { [ ] ' ` _ _ ) ( H / ^ ^ ^ ~ ~ ",
"o.o.o.o.o.o.o.o.o.o.o.o.o.o.o.o.o.o.o.O.O.^ G j +.n n @.#.$.%.&.*.=.-.;.;.;.:.>.>.:.;.;.;.-.=.*.&.%.$.#.@.n n +.j G ^ O.O.o.o.o.",
",.,.,.,.,.,.,.,.,.,.,.,.,.,.,.,.,.,.o.o.O.^ G j +.n n @.<.1.o.2.3.4.5.6.6.6.6.6.6.6.6.6.6.5.4.3.2.o.1.<.@.n n +.j G ^ O.o.o.,.,.",
"7.7.7.7.7.7.7.7.7.7.7.7.7.7.7.7.7.,.,.o.O.^ F j +.n n @.<.G 7.8.9.0.q.2.2.2.2.2.2.2.2.2.2.q.0.9.8.7.G <.@.n n +.j F ^ O.o.,.,.7.",
"7.7.7.7.7.7.7.7.7.7.7.7.7.7.7.7.7.,.,.o.O.^ F j +.n n +.h F ^ O.O.w.w.[ [ [ [ [ [ [ [ [ [ w.w.O.O.^ F h +.n n +.j F ^ O.o.,.,.7.",
",.,.,.,.,.,.,.,.,.,.,.,.,.,.,.,.,.,.o.o.O.^ G j +.n n +.j G ^ e.,.7.7.7.7.7.7.7.7.7.7.7.7.7.7.,.e.^ G j +.n n +.j G ^ O.o.o.,.,.",
"o.o.o.o.o.o.o.o.o.o.o.o.o.o.o.o.o.o.o.O.O.^ G j +.n n +.j G ^ O.o.,.,.7.7.7.7.7.7.7.7.7.7.,.,.o.O.^ G j +.n n +.j G ^ O.O.o.o.o.",
"~ ~ ~ ~ ~ ~ ~ ~ ~ ~ ~ ~ ~ ~ ~ ~ ~ ~ ^ ^ ^ r.t.( ` _ _ ` ( t.r.^ ^ ~ y.u.u.u.u.u.y.y.y.y.u.~ ~ ^ ^ r.t.i.` p.p.` i.t.r.^ ^ a.~ ~ ",
"s.s.s.s.s.s.s.d.d.D D D F F F F D D F G G t.J f.g.- - g.f.J t.G F F d.d.d.d.D D D F F D D D h.h.G t.j.k.P l.l.P k.j.t.G F D d.s.",
"z.z.z.z.z.z.z.z.x.#.#.c.j j j j c.c.h j j v.k.b._ n.n._ b.m.v.j j <.#.#.#.#.#.c.j j j j c.c.<.<.h ' M.N.p.B.B.p.N.M.' <.#.z.z.z.",
"` ` ` ` ` ` ` ) ) V.q +.9 C.C.9 +.q q +.+.` P n < + + < n Z.` +.+.q @.@.@.@.q +.9 C.C.9 +.q V.V.V.w A.S.r # # r S.A.w V.` ` ` ` ",
"D.D.F.F.F.D.e e G.G._ p.S.S.S.S.p.n n n n n ; 1 B.r r B.1 ; n n n n n n n n n p.S.S.S.S.p._ G.y e y n 2 H., , H.2 n e J.J.D.D.D.",
"K.L.L.L.L.K.P.I.U.e S.b B.r r B.1 ; n n n n n p.S.S.S.S.p.n n n n n n n n n ; 1 B.r r B.b S.e U.I.P.Y.K.T.T.T.T.T.K.K.R.K.K.K.K.",
"E.E.E.s s W.Q.!.~.^.L _ B.+ + < n P ` +.+.q q +.9 C.C.9 +.q @.@.V.@.q +.+.` Z.n < + + B._ L c ~.!.Q./.f d d d f s E.E.E.E.E.E.E.",
"(.).S _.`.Z '.V B ].[.+.p.< n._ b.k.v.j j h c.c.j j j j c.#.#.#.#.#.<.j j v.m.b._ n.< p.+.[.].B V '.Z {.{.}.}.`._.S ).(.(.(.(.(.",
"! ! Q |.|. X.XXXoXY U M.U.l.OXg.f.J t.G G F D D F F F F D D D d.d.D F G G t.J f.g.OXl.U.M.U Y oXXX.X+X@X#X@X|.|.Q $X! ! ! ! ! ! ",
"X.X....... .%X} &X[ ] ' *Xp.=X` ( t.r.^ ^ ^ ~ ~ ~ ~ ~ ~ ~ ~ ~ ~ ~ ~ ^ ^ ^ r.t.( ` =Xp.` ' ] [ -X} %X .;X;X..:XX.X.X.X.X.X.X.X.X.",
">.:.;.;.;.-.=.*.&.%.$.#.@.n n +.j G ^ O.O.o.o.o.o.o.o.o.o.o.o.o.o.o.o.O.O.^ G j +.n n @.#.$.%.&.*.=.-.;.;.;.:.>.>.>.>.>.>.>.>.>.",
"6.6.6.6.6.5.4.3.2.o.1.<.@.n n +.j G ^ O.o.o.,.,.,.,.,.,.,.,.,.,.,.,.o.o.O.^ G j +.n n @.<.1.o.2.3.4.5.6.6.6.6.6.6.6.6.6.6.6.6.6.",
"2.2.2.2.2.q.0.9.8.7.G <.@.n n +.j F ^ O.o.,.,.7.7.7.7.7.7.7.7.7.7.,.,.o.O.^ F j +.n n @.<.G 7.8.9.0.q.2.2.2.2.2.2.2.2.2.2.2.2.2.",
"[ [ [ [ [ w.w.O.O.^ F h +.n n +.j F ^ O.o.,.,.7.7.7.7.7.7.7.7.7.7.,.,.o.O.^ F j +.n n +.h F ^ O.O.w.w.[ [ [ [ [ [ [ [ [ [ [ [ [ ",
"7.7.7.7.7.7.7.,.e.^ G j +.n n +.j G ^ O.o.o.,.,.,.,.,.,.,.,.,.,.,.,.o.o.O.^ G j +.n n +.j G ^ e.,.7.7.7.7.7.7.7.7.7.7.7.7.7.7.7.",
"7.7.7.7.7.,.,.o.O.^ G j +.n n +.j G ^ O.O.o.o.o.o.o.o.o.o.o.o.o.o.o.o.O.O.^ G j +.n n +.j G ^ O.o.,.,.7.7.7.7.7.7.7.7.7.7.7.7.7.",
"u.u.u.u.u.y.~ ^ ^ r.t.( ` _ _ ` ( t.r.^ ^ ^ ~ ~ ~ ~ ~ ~ ~ ~ ~ ~ ~ ~ a.^ ^ r.t.i.` p.p.` i.t.r.^ ^ ~ ~ u.y.y.y.y.u.u.u.u.u.u.u.u.",
"d.d.d.d.d.d.F F G t.J f.g.- - g.f.J t.G G F D D F F F F D D D d.s.d.D F G t.j.k.P l.l.P k.j.t.G h.h.D D D F F D D D d.d.d.d.d.d.",
"#.#.#.#.#.#.<.j j v.m.b._ n.n._ b.k.v.j j h c.c.j j j j c.#.#.x.z.z.z.#.<.' M.N.p.B.B.p.N.M.' h <.<.c.c.j j j j c.#.#.#.#.#.#.#.",
"@.@.@.@.@.@.q +.+.` Z.n < + + < n P ` +.+.q q +.9 C.C.9 +.q V.) ) ` ` ` V.w A.S.r # # r S.A.w V.V.V.q +.9 C.C.9 +.q @.@.@.@.@.@.",
"_ _ _ _ _ n n n n n ; 1 B.r r B.1 ; n n n n n p.S.S.S.S.p._ G.G.e e D.>X>Xe n ; H., , H.2 n y e y G._ p.S.S.S.S.p.n n n n _ _ _ ",
"_ _ _ _ _ _ n n n n n p.S.S.S.S.p.n n n n n ; 1 B.r r B.b S.e U.I.P.K.L.,XL.K.T.T.T.T.T.K.Y.P.I.U.e S.b B.r r B.1 ; n n n n _ _ ",
"@.@.@.@.@.@.@.@.@.@.q +.9 C.C.9 +.q q +.+.` P n < + + B._ L ^.~.!.Q.W.s s s s s f d d d f /.Q.!.~.c L _ B.+ + < n Z.` +.+.@.@.V.",
"#.#.#.#.#.#.#.#.#.#.#.c.j j j j c.c.h j j v.k.b._ n.< p.+.[.].B V '.Z `.S S S _.`.}.}.{.{.Z '.V B ].[.+.p.< n._ b.m.v.j j <.#.#.",
"d.d.d.d.d.d.d.d.d.D D D F F F F D D F G G t.J f.g.OXl.U.M.U Y oXXX.X X|.|.Q Q Q |.|.@X#X@X+X.XXXoXY U M.U.l.OXg.f.J t.G G F D d.",
"~ ~ ~ ~ ~ ~ ~ ~ ~ ~ ~ ~ ~ ~ ~ ~ ~ ~ ^ ^ ^ r.t.( ` =Xp.*X' ] [ &X} %X .......:XX.X.:X..;X;X .%X} -X[ ] ' ` p.=X` ( t.r.^ ^ ^ ~ ~ ",
"o.o.o.o.o.o.o.o.o.o.o.o.o.o.o.o.o.o.o.O.O.^ G j +.n n @.#.$.%.&.*.=.-.;.;.;.:.>.>.:.;.;.;.-.=.*.&.%.$.#.@.n n +.j G ^ O.O.o.o.o.",
",.,.,.,.,.,.,.,.,.,.,.,.,.,.,.,.,.,.o.o.O.^ G j +.n n @.<.1.o.2.3.4.5.6.6.6.6.6.6.6.6.6.6.5.4.3.2.o.1.<.@.n n +.j G ^ O.o.o.,.,.",
"7.7.7.7.7.7.7.7.7.7.7.7.7.7.7.7.7.,.,.o.O.^ F j +.n n @.<.G 7.8.9.0.q.2.2.2.2.2.2.2.2.2.2.q.0.9.8.7.G <.@.n n +.j F ^ O.o.,.,.7.",
"7.7.7.7.7.7.7.7.7.7.7.7.7.7.7.7.7.,.,.o.O.^ F j +.n n +.h F ^ O.O.w.w.[ [ [ [ [ [ [ [ [ [ w.w.O.O.^ F h +.n n +.j F ^ O.o.,.,.7.",
",.,.,.,.,.,.,.,.,.,.,.,.,.,.,.,.,.,.o.o.O.^ G j +.n n +.j G ^ e.,.7.7.7.7.7.7.7.7.7.7.7.7.7.7.,.e.^ G j +.n n +.j G ^ O.o.o.,.,.",
"o.o.o.o.o.o.o.o.o.o.o.o.o.o.o.o.o.o.o.O.O.^ G j +.n n +.j G ^ O.o.,.,.7.7.7.7.7.7.7.7.7.7.,.,.o.O.^ G j +.n n +.j G ^ O.O.o.o.o.",
"~ ~ ~ ~ ~ ~ ~ ~ ~ ~ ~ ~ ~ ~ ~ ~ ~ ~ ^ ^ ^ r.t.( ` _ _ ` ( t.r.^ ^ ~ y.u.u.u.u.u.y.y.y.y.u.~ ~ ^ ^ r.t.i.` p.p.` i.t.r.^ ^ a.~ ~ ",
"s.s.s.s.s.s.s.d.d.D D D F F F F D D F G G t.J f.g.- - g.f.J t.G F F d.d.d.d.D D D F F D D D h.h.G t.j.k.P l.l.P k.j.t.G F D d.s.",
"z.z.z.z.z.z.z.z.x.#.#.c.j j j j c.c.h j j v.k.b._ n.n._ b.m.v.j j <.#.#.#.#.#.c.j j j j c.c.<.<.h ' M.N.p.B.B.p.N.M.' <.#.z.z.z.",
"` ` ` ` ` ` ` ) ) V.q +.9 C.C.9 +.q q +.+.` P n < + + < n Z.` +.+.q @.@.@.@.q +.9 C.C.9 +.q V.V.V.w A.S.r # # r S.A.w V.` ` ` ` ",
"D.D.F.F.F.D.e e G.G._ p.S.S.S.S.p.n n n n n ; 1 B.r r B.1 ; n n n n n n n n n p.S.S.S.S.p._ G.y e y n 2 H., , H.2 n e J.J.D.D.D.",
"K.L.L.L.L.K.P.I.U.e S.b B.r r B.1 ; n n n n n p.S.S.S.S.p.n n n n n n n n n ; 1 B.r r B.b S.e U.I.P.Y.K.T.T.T.T.T.K.K.R.K.K.K.K.",
"E.E.E.s s W.Q.!.~.^.L _ B.+ + < n P ` +.+.q q +.9 C.C.9 +.q @.@.V.@.q +.+.` Z.n < + + B._ L c ~.!.Q./.f d d d f s E.E.E.E.E.E.E.",
"(.).S _.`.Z '.V B ].[.+.p.< n._ b.k.v.j j h c.c.j j j j c.#.#.#.#.#.<.j j v.m.b._ n.< p.+.[.].B V '.Z {.{.}.}.`._.S ).(.(.(.(.(.",
"! ! Q |.|. X.XXXoXY U M.U.l.OXg.f.J t.G G F D D F F F F D D D d.d.D F G G t.J f.g.OXl.U.M.U Y oXXX.X+X@X#X@X|.|.Q $X! ! ! ! ! ! ",
"X.X....... .%X} &X[ ] ' *Xp.=X` ( t.r.^ ^ ^ ~ ~ ~ ~ ~ ~ ~ ~ ~ ~ ~ ~ ^ ^ ^ r.t.( ` =Xp.` ' ] [ -X} %X .;X;X..:XX.X.X.X.X.X.X.X.X.",
">.:.;.;.;.-.=.*.&.%.$.#.@.n n +.j G ^ O.O.o.o.o.o.o.o.o.o.o.o.o.o.o.o.O.O.^ G j +.n n @.#.$.%.&.*.=.-.;.;.;.:.>.>.>.>.>.>.>.>.>.",
"6.6.6.6.6.5.4.3.2.o.$.<.@.n n +.j G ^ O.o.o.,.,.,.,.,.,.,.,.,.,.,.,.o.o.O.^ G j +.n n @.<.$.o.2.3.4.5.6.6.6.6.6.6.6.6.6.6.6.6.6.",
"q.q.q.q.q.q.0.<X8.7.G <.V._ n q <.F ^ o.o.,.,.7.7.7.7.7.7.7.7.7.7.,.,.o.o.^ F <.q n _ V.<.G 7.8.<X0.q.q.q.q.q.q.q.q.q.q.q.q.q.q.",
"o.o.o.o.o.o.e.1XO.^ D #.V._ _ @.#.D ~ o.,.,.,.7.7.7.7.7.7.7.7.7.7.,.,.,.o.~ D #.@._ _ V.#.D ^ O.1Xe.o.o.o.o.o.o.o.o.o.o.o.o.o.o.",
"2X2X2X2X2X^ 3X4X5X~ d.#.@._ _ V.#.d.~ o.,.7.7.,.,.,.,.,.,.,.,.,.,.7.7.,.o.~ d.#.V._ _ @.#.d.~ 5X4X3X^ 2X2X2X2X2X2X2X2X2X2X2X2X2X",
"^ ^ ^ ^ ^ 6X7.,.o.~ d.#.@._ _ @.#.d.~ o.,.7.7.,.,.,.,.,.,.,.,.,.,.7.7.,.o.~ d.#.@._ _ @.#.d.~ o.,.7.6X^ ^ ^ ^ ^ ^ ^ ^ ^ ^ ^ ^ ^ ",
"7.7.7.7.7.7.7.,.o.~ d.#.@._ _ @.#.d.~ o.,.7.7.,.,.,.,.,.,.,.,.,.,.7.7.,.o.~ d.#.@._ _ @.#.d.~ o.,.7.7.7.7.7.7.7.7.7.7.7.7.7.7.7.",
"7.7.7.7.7.7.7.,.o.~ d.#.@._ _ @.#.d.~ o.,.7.7.,.,.,.,.,.,.,.,.,.,.7.7.,.o.~ d.#.@._ _ @.#.d.~ o.,.7.7.7.7.7.7.7.7.7.7.7.7.7.7.7.",
",.,.,.,.,.,.7.,.o.~ d.#.@._ _ @.#.d.~ o.,.7.7.,.,.,.,.,.,.,.,.,.,.7.7.,.o.~ d.#.@._ _ @.#.d.~ o.,.7.,.,.,.,.,.,.,.,.,.,.,.,.,.,."
};
